<svg width="100" height="100" viewBox="0 0 100 100" fill="none" xmlns="http://www.w3.org/2000/svg">
<path d="M100 50C100 77.6142 77.6142 100 50 100C22.3858 100 0 77.6142 0 50C0 22.3858 22.3858 0 50 0C77.6142 0 100 22.3858 100 50Z" fill="#C4C4C4" fill-opacity="0.5"/>
<path d="M50 28.9375L46.7188 33.3125H17.1875V63.9375C17.1875 65.1406 18.1719 66.125 19.375 66.125H78.4375V28.9375H50Z" fill="#EF5455"/>
<path d="M21.5625 37.6875H50V53H21.5625V37.6875Z" fill="#EF5455"/>
<path d="M82.8123 70.828V71.5937H76.3264L76.2717 71.6593C74.4014 70.0624 72.2139 68.8265 69.8076 68.0718L71.1311 65.4249C71.5467 64.5827 71.9295 63.7187 72.2576 62.8437C72.6514 61.8155 72.9795 60.7765 73.242 59.7046C75.1779 59.9999 76.9607 60.7874 78.4373 61.9249C81.0951 63.9921 82.8123 67.2077 82.8123 70.828Z" fill="#FF826E"/>
<path d="M52.2422 71.5938C54.0906 70.0297 56.2562 68.8156 58.6297 68.0719C60.3906 67.5141 62.2719 67.2188 64.2188 67.2188C66.1656 67.2188 68.0469 67.5141 69.8078 68.0719C72.2141 68.8266 74.4016 70.0625 76.2719 71.6594C80.275 75.0719 82.8125 80.1469 82.8125 85.8125H78.4375C78.4375 83.8875 78.0547 82.05 77.3547 80.3766C76.6328 78.6375 75.5828 77.0734 74.2703 75.7609C72.9578 74.4484 71.3938 73.3984 69.6547 72.6766C67.9813 71.9766 66.1437 71.5938 64.2188 71.5938C62.2938 71.5938 60.4562 71.9766 58.7828 72.6766C57.0437 73.3984 55.4797 74.4484 54.1672 75.7609C52.8547 77.0734 51.8047 78.6375 51.0828 80.3766C50.3828 82.05 50 83.8875 50 85.8125H45.625C45.625 80.1031 48.1953 75.0062 52.2422 71.5938Z" fill="#EF5455"/>
<path d="M78.4375 22.375V28.9375H50L46.7188 33.3125H17.1875V22.375C17.1875 21.1719 18.1719 20.1875 19.375 20.1875H76.25C77.4531 20.1875 78.4375 21.1719 78.4375 22.375Z" fill="#B4DD7F"/>
<path d="M73.2422 59.7047C72.9797 60.7766 72.6516 61.8156 72.2578 62.8438H72.2469H56.1906H56.1797C55.7859 61.8156 55.4578 60.7766 55.1953 59.7047C54.6484 57.5281 54.375 55.275 54.375 53.0109C54.375 48.8219 55.3156 44.7094 57.1203 40.9688H57.1313H71.3062H71.3172C73.1219 44.7094 74.0625 48.8219 74.0625 53.0109C74.0625 55.275 73.7891 57.5281 73.2422 59.7047Z" fill="#E6E9ED"/>
<path d="M72.2469 62.8438H72.2578C71.9297 63.7187 71.5469 64.5828 71.1313 65.425L69.8078 68.0719C68.0469 67.5141 66.1656 67.2187 64.2188 67.2187C62.2719 67.2187 60.3906 67.5141 58.6297 68.0719L57.3062 65.425C56.8906 64.5828 56.5078 63.7187 56.1797 62.8438H56.1906H72.2469Z" fill="#EF5455"/>
<path d="M71.317 40.9688H71.3061H57.1311H57.1201C57.7654 39.6234 58.5311 38.3219 59.3951 37.075L60.7732 35.1063C61.5607 33.9797 62.8514 33.3125 64.2186 33.3125C65.5857 33.3125 66.8764 33.9797 67.6639 35.1063L69.042 37.075C69.9061 38.3219 70.6717 39.6234 71.317 40.9688Z" fill="#FF826E"/>
<path d="M78.4375 85.8125C78.4375 77.9594 72.0719 71.5938 64.2188 71.5938C56.3656 71.5938 50 77.9594 50 85.8125H78.4375Z" fill="#EF5455"/>
<path d="M68.5938 85.8125H59.8438C59.8438 83.3953 61.8016 81.4375 64.2188 81.4375C66.6359 81.4375 68.5938 83.3953 68.5938 85.8125Z" fill="#FCD770"/>
<path d="M64.2188 56.2812C67.2391 56.2812 69.6875 53.8328 69.6875 50.8125C69.6875 47.7922 67.2391 45.3438 64.2188 45.3438C61.1984 45.3438 58.75 47.7922 58.75 50.8125C58.75 53.8328 61.1984 56.2812 64.2188 56.2812Z" fill="#EF5455"/>
<path d="M57.3063 65.4249L58.6297 68.0718C56.2563 68.8155 54.0906 70.0296 52.2422 71.5937H45.625V70.828C45.625 69.1437 45.9969 67.5577 46.6531 66.1249C48.2063 62.7562 51.3891 60.2843 55.1953 59.7046C55.4578 60.7765 55.7859 61.8155 56.1797 62.8437C56.5078 63.7187 56.8906 64.5827 57.3063 65.4249Z" fill="#FF826E"/>
<path d="M39.0625 24.5625H43.4375V28.9375H39.0625V24.5625Z" fill="#E6E9ED"/>
<path d="M30.3125 24.5625H34.6875V28.9375H30.3125V24.5625Z" fill="#E6E9ED"/>
<path d="M21.5625 24.5625H25.9375V28.9375H21.5625V24.5625Z" fill="#E6E9ED"/>
<path d="M64.2188 44.25C60.5995 44.25 57.6562 47.1933 57.6562 50.8125C57.6562 54.4317 60.5995 57.375 64.2188 57.375C67.838 57.375 70.7812 54.4317 70.7812 50.8125C70.7812 47.1933 67.838 44.25 64.2188 44.25ZM64.2188 55.1875C61.8059 55.1875 59.8438 53.2253 59.8438 50.8125C59.8438 48.3997 61.8059 46.4375 64.2188 46.4375C66.6316 46.4375 68.5938 48.3997 68.5938 50.8125C68.5938 53.2253 66.6316 55.1875 64.2188 55.1875Z" fill="black" fill-opacity="0.7"/>
<path d="M27.0312 23.4688H20.4688V30.0312H27.0312V23.4688ZM24.8438 27.8438H22.6562V25.6562H24.8438V27.8438Z" fill="black" fill-opacity="0.7"/>
<path d="M35.7812 23.4688H29.2188V30.0312H35.7812V23.4688ZM33.5938 27.8438H31.4062V25.6562H33.5938V27.8438Z" fill="black" fill-opacity="0.7"/>
<path d="M44.5312 23.4688H37.9688V30.0312H44.5312V23.4688ZM42.3438 27.8438H40.1562V25.6562H42.3438V27.8438Z" fill="black" fill-opacity="0.7"/>
<path d="M51.0938 36.5938H20.4688V54.0938H51.0938V36.5938ZM48.9062 51.9062H22.6562V38.7812H48.9062V51.9062Z" fill="black" fill-opacity="0.7"/>
<path d="M83.9062 70.827C83.9062 67.1258 82.212 63.733 79.5312 61.4448V22.375C79.5312 20.5659 78.0591 19.0938 76.25 19.0938H19.375C17.5659 19.0938 16.0938 20.5659 16.0938 22.375V63.9375C16.0938 65.7466 17.5659 67.2188 19.375 67.2188H45.0902C44.7325 68.3672 44.5312 69.578 44.5312 70.827V72.6875H49.5866C46.4552 76.1755 44.5312 80.7681 44.5312 85.8125V86.9062H83.9062V85.8125C83.9062 80.7681 81.9823 76.1755 78.8509 72.6875H83.9062V70.827ZM19.375 21.2812H76.25C76.8527 21.2812 77.3438 21.7723 77.3438 22.375V27.8438H49.4531L46.1719 32.2188H18.2812V22.375C18.2812 21.7723 18.7723 21.2812 19.375 21.2812ZM19.375 65.0312C18.7723 65.0312 18.2812 64.5412 18.2812 63.9375V34.4062H47.2656L50.5469 30.0312H77.3438V59.9486C76.4666 59.4783 75.5303 59.1042 74.5405 58.857C74.9397 56.9309 75.1562 54.9688 75.1562 53.0055C75.1562 47.0522 73.3516 41.3275 69.938 36.4505L68.5577 34.4784C67.5678 33.0631 65.9458 32.2188 64.2188 32.2188C62.4917 32.2188 60.8697 33.0631 59.8809 34.4773L58.5006 36.4494C55.0859 41.3275 53.2812 47.0522 53.2812 53.0055C53.2812 54.9688 53.4978 56.932 53.897 58.8559C50.4692 59.7145 47.6364 62.0202 46.0133 65.0312H19.375ZM69.2238 66.7944C67.6225 66.3722 65.9512 66.125 64.2188 66.125C62.4863 66.125 60.815 66.3722 59.2137 66.7944L58.2863 64.9383C58.1222 64.6091 57.9723 64.2733 57.8225 63.9375H70.6161C70.4652 64.2733 70.3164 64.6091 70.1523 64.9383L69.2238 66.7944ZM71.4834 61.75H56.9541C55.9817 58.9423 55.4688 55.9739 55.4688 53.0055C55.4688 49.1905 56.288 45.4837 57.8323 42.0625H70.6052C72.1484 45.4837 72.9688 49.1905 72.9688 53.0055C72.9688 55.9739 72.4558 58.9423 71.4834 61.75ZM58.9381 39.875C59.357 39.1356 59.8 38.4072 60.2922 37.7039L61.6725 35.7319C62.2533 34.9017 63.2048 34.4062 64.2188 34.4062C65.2327 34.4062 66.1842 34.9017 66.765 35.7319L68.1453 37.705C68.6375 38.4083 69.0805 39.1367 69.4994 39.875H58.9381ZM54.4166 60.9833C54.9044 62.6819 55.5398 64.3378 56.3295 65.9172L57.1083 67.4747C55.203 68.2163 53.4377 69.2356 51.8725 70.5H46.7253C46.8719 65.9817 50.0711 62.0748 54.4166 60.9833ZM51.7194 81.8192L53.6958 82.6373L54.5325 80.6161L52.5648 79.8013C53.0209 78.9208 53.57 78.0972 54.2066 77.3458L55.7116 78.8508L57.2581 77.3042L55.7531 75.7992C56.5034 75.1637 57.327 74.6136 58.2086 74.1575L59.0234 76.1252L61.0447 75.2873L60.2266 73.312C61.153 73.0156 62.1242 72.8253 63.1261 72.7422V74.875H65.3136V72.7433C66.3155 72.8264 67.2867 73.0167 68.2131 73.3131L67.395 75.2884L69.4162 76.1263L70.2311 74.1586C71.1116 74.6147 71.9352 75.1637 72.6866 75.8003L71.1816 77.3053L72.7281 78.8519L74.2331 77.3469C74.8686 78.0972 75.4188 78.9208 75.8748 79.8023L73.9072 80.6172L74.7439 82.6384L76.7203 81.8203C77.0167 82.7467 77.207 83.718 77.2912 84.7198H69.5803C69.1406 82.5794 67.4519 80.8906 65.3125 80.4542V77.0625H63.125V80.4542C60.9856 80.8906 59.2969 82.5794 58.8605 84.7188H51.1495C51.2327 83.7169 51.423 82.7445 51.7194 81.8192ZM64.2188 82.5312C65.6428 82.5312 66.8459 83.4489 67.2988 84.7188H61.1398C61.5916 83.4489 62.7947 82.5312 64.2188 82.5312ZM79.4755 84.7188C78.9111 76.7858 72.2928 70.5 64.2188 70.5C56.1447 70.5 49.5264 76.7858 48.962 84.7188H46.7527C47.3192 75.5772 54.9372 68.3125 64.2188 68.3125C73.5003 68.3125 81.1183 75.5772 81.6848 84.7188H79.4755ZM76.5661 70.5C75.0009 69.2356 73.2356 68.2163 71.3303 67.4747L72.1091 65.9172C72.8988 64.3378 73.5342 62.6819 74.022 60.9833C78.3664 62.0748 81.5667 65.9828 81.7144 70.5H76.5661Z" fill="black" fill-opacity="0.7"/>
<path d="M20.4688 56.2812H22.6562V58.4688H20.4688V56.2812Z" fill="black" fill-opacity="0.7"/>
<path d="M24.8438 56.2812H44.5312V58.4688H24.8438V56.2812Z" fill="black" fill-opacity="0.7"/>
<path d="M20.4688 60.6562H44.5312V62.8438H20.4688V60.6562Z" fill="black" fill-opacity="0.7"/>
</svg>
