<svg width="100" height="100" viewBox="0 0 100 100" fill="none" xmlns="http://www.w3.org/2000/svg">
<path d="M100 50C100 77.6142 77.6142 100 50 100C22.3858 100 0 77.6142 0 50C0 22.3858 22.3858 0 50 0C77.6142 0 100 22.3858 100 50Z" fill="#C4C4C4" fill-opacity="0.5"/>
<path d="M46.9998 55.6667L44.6665 68.5L41.1665 72V79H29.4998V74.3333L24.8332 69.6667L20.1665 59.1667V54.5L21.3332 51L22.4998 37H28.3332L29.4998 53.3333L34.1665 60.3333H38.8332L41.1665 54.5L46.9998 55.6667Z" fill="#EF5455"/>
<path d="M87.8333 54.5V59.1667L83.1667 69.6667L78.5 74.3333V79H66.8333V72L63.3333 68.5L61 55.6667L66.8333 54.5L69.1667 60.3333H73.8333L78.5 53.3333L79.6667 37H85.5L86.6667 51L87.8333 54.5Z" fill="#EF5455"/>
<path d="M57.5 48.6666V52.1666C57.5 52.8109 56.9776 53.3333 56.3333 53.3333H51.6667C51.0224 53.3333 50.5 52.8109 50.5 52.1666V48.6666H57.5Z" fill="#ACABB1"/>
<path d="M57.4998 44.63V48.6666H50.4998V44.63C45.0054 42.9022 41.5943 37.4232 42.4681 31.73C43.3426 26.0374 48.2399 21.8339 53.9998 21.8339C59.7596 21.8339 64.657 26.0374 65.5314 31.73C66.4053 37.4232 62.9942 42.9022 57.4998 44.63Z" fill="#FFE26E"/>
<path d="M27.1665 79H43.4998V84.8333H27.1665V79Z" fill="#957856"/>
<path d="M64.5 79H80.8333V84.8333H64.5V79Z" fill="#957856"/>
<path d="M88.9408 54.1315L87.818 50.7665L86.6667 36.9032C86.616 36.2971 86.1085 35.8311 85.5001 35.8334H79.6667C79.0532 35.8317 78.5434 36.3056 78.5001 36.9174L77.3556 52.9426L73.2091 59.1667H69.9563L67.9175 54.0671C67.7078 53.543 67.153 53.2434 66.5998 53.3567L60.7665 54.5234C60.1427 54.6482 59.7337 55.2497 59.8476 55.8758L62.181 68.7091C62.2231 68.9421 62.3359 69.1574 62.504 69.3249L65.6667 72.4831V77.8334H64.5001C63.8558 77.8334 63.3334 78.3558 63.3334 79V84.8334C63.3334 85.4777 63.8558 86 64.5001 86H80.8334C81.4777 86 82.0001 85.4777 82.0001 84.8334V79C82.0001 78.3558 81.4777 77.8334 80.8334 77.8334H79.6667V74.8165L83.9916 70.4916C84.093 70.3908 84.175 70.2723 84.2331 70.1418L88.8998 59.6418C88.9659 59.492 89.0001 59.3302 89.0001 59.1667V54.5C89.0001 54.3747 88.9801 54.2505 88.9408 54.1315ZM79.6667 83.6667H65.6667V80.1667H79.6667V83.6667ZM86.6667 58.9195L82.1892 68.9945L77.6752 73.5085C77.4565 73.7273 77.3334 74.0241 77.3334 74.3334V77.8334H68.0001V72C68.0001 71.6907 67.877 71.3939 67.6583 71.1752L64.4163 67.9332L62.3536 56.5861L66.1099 55.8348L68.0827 60.7663C68.2598 61.2095 68.6894 61.5 69.1667 61.5H73.8334C74.2236 61.5 74.5876 61.3052 74.8041 60.9811L79.4708 53.9811C79.5836 53.8125 79.6508 53.6182 79.6667 53.416L80.7531 38.1667H84.4268L85.5001 51.0969C85.508 51.1892 85.5268 51.2803 85.5559 51.3686L86.6667 54.6892V58.9195Z" fill="#231F20" fill-opacity="0.7"/>
<path d="M47.2336 54.5234L41.4002 53.3567C40.8482 53.2462 40.2962 53.5447 40.0877 54.0671L38.0438 59.1667H34.791L30.6422 52.9426L29.5 36.9174C29.4567 36.3056 28.9469 35.8317 28.3333 35.8334H22.5C21.8916 35.8311 21.384 36.2971 21.3333 36.9032L20.182 50.7665L19.0592 54.1338C19.0205 54.2517 19 54.3753 19 54.5V59.1667C19 59.3296 19.0342 59.4914 19.1003 59.6401L23.7669 70.1401C23.825 70.2711 23.9071 70.3896 24.0085 70.4904L28.3333 74.8165V77.8334H27.1667C26.5224 77.8334 26 78.3558 26 79V84.8334C26 85.4777 26.5224 86 27.1667 86H43.5C44.1443 86 44.6667 85.4777 44.6667 84.8334V79C44.6667 78.3558 44.1443 77.8334 43.5 77.8334H42.3333V72.4831L45.4915 69.3249C45.6596 69.1574 45.7718 68.9421 45.8145 68.7091L48.1479 55.8758C48.2618 55.2509 47.8551 54.6504 47.2336 54.5234ZM42.3333 83.6667H28.3333V80.1667H42.3333V83.6667ZM43.5837 67.9332L40.3418 71.1752C40.123 71.3939 40 71.6907 40 72V77.8334H30.6667V74.3334C30.6667 74.0241 30.5436 73.7273 30.3249 73.5085L25.8109 68.9945L21.3333 58.9195V54.6892L22.4408 51.3686C22.4709 51.2809 22.4909 51.1897 22.5 51.0969L23.5732 38.1667H27.247L28.3333 53.416C28.3487 53.6176 28.4154 53.8125 28.527 53.9811L33.1937 60.9811C33.4107 61.3058 33.7759 61.5006 34.1667 61.5H38.8333C39.3107 61.5 39.7402 61.2095 39.9174 60.7663L41.8901 55.8348L45.6465 56.5861L43.5837 67.9332Z" fill="#231F20" fill-opacity="0.7"/>
<path d="M52.8335 16H55.1668V18.3333H52.8335V16Z" fill="#231F20" fill-opacity="0.7"/>
<path d="M40.8008 21.9507L42.4511 20.3004L44.1008 21.9507L42.4511 23.6005L40.8008 21.9507Z" fill="#231F20" fill-opacity="0.7"/>
<path d="M36.5 32.3334H38.8333V34.6667H36.5V32.3334Z" fill="#231F20" fill-opacity="0.7"/>
<path d="M40.8008 45.0493L42.4511 43.3995L44.1008 45.0493L42.4511 46.699L40.8008 45.0493Z" fill="#231F20" fill-opacity="0.7"/>
<path d="M63.9004 45.0493L65.5501 43.3995L67.1999 45.0493L65.5501 46.699L63.9004 45.0493Z" fill="#231F20" fill-opacity="0.7"/>
<path d="M69.1665 32.3334H71.4998V34.6667H69.1665V32.3334Z" fill="#231F20" fill-opacity="0.7"/>
<path d="M63.9004 21.9507L65.5501 20.3004L67.1999 21.9507L65.5501 23.6005L63.9004 21.9507Z" fill="#231F20" fill-opacity="0.7"/>
<path d="M66.8335 33.5C66.8323 27.0269 62.0101 21.5679 55.5866 20.7675C49.1631 19.9671 43.1486 24.0766 41.5598 30.3515C39.9705 36.6269 43.3036 43.1033 49.3334 45.4572V52.1667C49.3334 53.4552 50.3782 54.5 51.6668 54.5H56.3334C57.622 54.5 58.6668 53.4552 58.6668 52.1667V45.4572C63.6029 43.5477 66.8505 38.7927 66.8335 33.5ZM51.6668 52.1667V49.8333H56.3334V52.1667H51.6668ZM57.5001 43.3922V37.4831L60.6583 34.3249L59.0086 32.6751L55.5086 36.1751C55.2898 36.3939 55.1668 36.6907 55.1668 37V47.5H52.8334V37C52.8334 36.6907 52.7104 36.3939 52.4916 36.1751L48.9916 32.6751L47.3419 34.3249L50.5001 37.4831V43.3922C45.6785 41.6877 42.7863 36.7573 43.6511 31.7169C44.5158 26.6766 48.8863 22.9926 54.0001 22.9926C59.114 22.9926 63.4844 26.6766 64.3492 31.7169C65.2139 36.7573 62.3217 41.6877 57.5001 43.3922Z" fill="#231F20" fill-opacity="0.7"/>
</svg>
