<svg width="100" height="100" viewBox="0 0 100 100" fill="none" xmlns="http://www.w3.org/2000/svg">
<path d="M100 50C100 77.6142 77.6142 100 50 100C22.3858 100 0 77.6142 0 50C0 22.3858 22.3858 0 50 0C77.6142 0 100 22.3858 100 50Z" fill="#C4C4C4" fill-opacity="0.5"/>
<path d="M76.4357 44.9858V72.7942C76.4357 75.9539 73.8765 78.5132 70.7167 78.5132H29.2829C26.1232 78.5132 23.564 75.9539 23.564 72.7942V44.9858C23.564 41.8261 26.1232 39.2668 29.2829 39.2668H30.9843H36.7033H63.2249H68.9439H70.7167C73.8765 39.2668 76.4357 41.8261 76.4357 44.9858ZM54.1318 57.5103C54.1318 55.2084 52.2588 53.3355 49.9569 53.3355C47.6551 53.3355 45.7821 55.2084 45.7821 57.5103C45.7821 59.8122 47.6551 61.6851 49.9569 61.6851C52.2588 61.6851 54.1318 59.8265 54.1318 57.5103Z" fill="#EF5455"/>
<path d="M68.9438 39.2524L63.2248 39.2667V39.2524V30.6597C63.2248 23.2107 57.2771 17.1486 49.9712 17.1486C42.6652 17.1486 36.7175 23.2107 36.7175 30.6597V39.2524V39.2667H30.9985V39.2524V30.6597C30.9985 20.051 39.5198 11.4297 49.9712 11.4297C60.4226 11.4297 68.9438 20.051 68.9438 30.6597V39.2524Z" fill="#FDC75B"/>
<path d="M49.9571 61.6851C52.2628 61.6851 54.1319 59.816 54.1319 57.5103C54.1319 55.2046 52.2628 53.3354 49.9571 53.3354C47.6514 53.3354 45.7822 55.2046 45.7822 57.5103C45.7822 59.816 47.6514 61.6851 49.9571 61.6851Z" fill="#FDC75B"/>
<path d="M49.9285 10C38.6765 10 29.5548 19.2647 29.5548 30.6597V37.8227H29.2831C25.337 37.8227 22.1201 41.0396 22.1201 44.9857V72.7941C22.1201 76.7402 25.337 80 29.2831 80H70.7169C74.663 80 77.8799 76.7402 77.8799 72.7941V44.9857C77.8799 41.0396 74.663 37.8227 70.7169 37.8227H70.3023V30.6597C70.3023 19.2647 61.1806 10 49.9285 10ZM32.4142 30.6597C32.4142 20.8517 40.2492 12.8595 49.9285 12.8595C59.6079 12.8595 67.4428 20.8374 67.4428 30.6597V37.8227H64.5834V30.6597C64.5834 22.4244 58.0351 15.719 49.9285 15.719C41.8219 15.719 35.2737 22.4244 35.2737 30.6597V37.8227H32.4142V30.6597ZM61.7239 30.6597V37.8227H38.1332V30.6597C38.1332 23.9971 43.4089 18.5784 49.9285 18.5784C56.4481 18.5784 61.7239 23.9971 61.7239 30.6597ZM70.7312 40.6822C73.1046 40.6822 75.0204 42.598 75.0204 44.9714V72.8513C75.0204 75.2247 73.1046 77.1405 70.7312 77.1405H29.2688C26.8954 77.1405 24.9796 75.2247 24.9796 72.8513V44.9714C24.9796 42.598 26.8954 40.6822 29.2688 40.6822H70.7312Z" fill="black" fill-opacity="0.7"/>
<path d="M48.5701 62.929V69.0769C48.5701 69.8633 49.2135 70.5067 49.9999 70.5067C50.7862 70.5067 51.4296 69.8633 51.4296 69.0769V62.929C53.8602 62.3 55.5901 60.0982 55.5901 57.5103C55.5901 54.4221 53.0595 51.9058 49.957 51.9058C46.8544 51.9058 44.3667 54.4221 44.3667 57.5103C44.3667 60.1125 46.1396 62.3 48.5701 62.929ZM49.957 54.7652C51.4725 54.7652 52.7021 55.9948 52.7021 57.5103C52.7021 59.0259 51.4725 60.2554 49.957 60.2554C48.4415 60.2554 47.2119 59.0259 47.2119 57.5103C47.2119 55.9948 48.4415 54.7652 49.957 54.7652Z" fill="black" fill-opacity="0.7"/>
</svg>
