<svg width="100" height="100" viewBox="0 0 100 100" fill="none" xmlns="http://www.w3.org/2000/svg">
<path d="M100 50C100 77.6142 77.6142 100 50 100C22.3858 100 0 77.6142 0 50C0 22.3858 22.3858 0 50 0C77.6142 0 100 22.3858 100 50Z" fill="#C4C4C4" fill-opacity="0.5"/>
<path d="M76.0625 32.0781L59.6563 15.6035C59.2712 15.2174 58.7484 15 58.2031 15H30.8594C26.713 15 23.3398 18.3833 23.3398 22.5425V77.458C23.3398 81.6167 26.713 85 30.8594 85H69.1406C73.287 85 76.6602 81.6167 76.6602 77.4575V33.5254C76.6602 32.9828 76.4455 32.4626 76.0625 32.0781ZM60.2539 22.0164L69.6731 31.4746H63.6719C61.7872 31.4746 60.2539 29.9312 60.2539 28.0337V22.0164ZM69.1406 80.8984H30.8594C28.9747 80.8984 27.4414 79.355 27.4414 77.4575V22.5425C27.4414 20.645 28.9747 19.1016 30.8594 19.1016H56.1523V28.0337C56.1523 32.1929 59.5255 35.5762 63.6719 35.5762H72.5586V77.4575C72.5586 79.355 71.0253 80.8984 69.1406 80.8984Z" fill="#EF5455"/>
<path d="M61.8053 43.8926L45.3991 48.0113C44.4869 48.2398 43.8477 49.0596 43.8477 50.0001V60.3053H41.7969C38.4558 60.3053 35.6445 63.0007 35.6445 66.4918C35.6445 69.8841 38.4045 72.6441 41.7969 72.6441C45.1892 72.6441 47.9492 69.8841 47.9492 66.4918C47.9492 65.0189 47.9492 53.0886 47.9492 51.5996L60.2539 48.5106V56.1866H58.2031C54.8621 56.1866 52.0508 58.882 52.0508 62.3731C52.0508 65.7655 54.8108 68.5255 58.2031 68.5255C61.5955 68.5255 64.3555 65.7655 64.3555 62.3731C64.3555 62.1125 64.3555 46.3909 64.3555 45.8814C64.3555 44.5468 63.0983 43.5674 61.8053 43.8926ZM43.8477 66.4918C43.8477 67.6224 42.9275 68.5426 41.7969 68.5426C40.7085 68.5426 39.7461 67.6779 39.7461 66.4576C39.7461 65.327 40.6663 64.4068 41.7969 64.4068H43.8477V66.4918ZM60.2539 62.3731C60.2539 63.5037 59.3337 64.4239 58.2031 64.4239C57.1147 64.4239 56.1523 63.5593 56.1523 62.339C56.1523 61.2084 57.0725 60.2882 58.2031 60.2882H60.2539V62.3731Z" fill="#EF5455"/>
</svg>
