<svg width="100" height="100" viewBox="0 0 100 100" fill="none" xmlns="http://www.w3.org/2000/svg">
<path d="M100 50C100 77.6142 77.6142 100 50 100C22.3858 100 0 77.6142 0 50C0 22.3858 22.3858 0 50 0C77.6142 0 100 22.3858 100 50Z" fill="#C4C4C4" fill-opacity="0.5"/>
<g clip-path="url(#clip0)">
<path fill-rule="evenodd" clip-rule="evenodd" d="M26.0238 51C26.0238 36.6537 37.6539 25.0236 52.0003 25.0236C66.3467 25.0236 77.9768 36.6537 77.9768 51C77.9768 65.3464 66.3467 76.9765 52.0003 76.9765C37.6539 76.9765 26.0238 65.3464 26.0238 51ZM58.3748 19.9014L54.661 18.0385C53.0622 17.1805 51.0783 17.1113 49.3573 18.0292L46.0241 19.8159L41.9141 19.5185C40.0771 19.312 38.1762 20.0123 36.9185 21.5493L34.4934 24.511L30.9151 25.6988C29.0158 26.1415 27.3988 27.5592 26.7944 29.5602L25.6897 33.2167L22.4798 35.9936C21.1236 37.1467 20.3358 38.9237 20.5233 40.8296L20.9014 44.6256L19.0386 48.3392C18.1806 49.938 18.1114 51.9219 19.0293 53.6429L20.816 56.9761L20.5186 61.0862C20.3122 62.9231 21.0124 64.824 22.5494 66.0817L25.5112 68.5068L26.699 72.0851C27.1417 73.9844 28.5594 75.6014 30.5603 76.2058L34.2168 77.3105L36.9937 80.5204C38.1469 81.8766 39.9238 82.6644 41.8297 82.4769L45.6254 82.0985L49.3394 83.9614C50.9379 84.8196 52.9221 84.8889 54.6429 83.9709L57.9763 82.1842L62.0863 82.4816C63.9232 82.688 65.8242 81.9878 67.0818 80.4508L69.5069 77.4891L73.0853 76.3013C74.9846 75.8586 76.6015 74.4408 77.2061 72.4399L78.3108 68.7834L81.5206 66.0065C82.8769 64.8533 83.6647 63.0764 83.4772 61.1705L83.0989 57.3749L84.9618 53.661C85.82 52.0625 85.8893 50.0783 84.9713 48.3574L83.1846 45.0241L83.482 40.9141C83.6884 39.0771 82.9882 37.1762 81.4512 35.9185L78.4895 33.4934L77.3017 29.9151C76.859 28.0158 75.4413 26.3988 73.4403 25.7943L69.7838 24.6896L67.0068 21.4797C65.8535 20.1235 64.0766 19.3357 62.1708 19.5231L58.3748 19.9014Z" fill="#EF5455"/>
<path fill-rule="evenodd" clip-rule="evenodd" d="M56.9232 44.1698C55.4113 42.7128 54.88 40.4411 55.6363 38.6208C56.4656 36.6246 56.4335 35.0478 55.4911 33.2589C54.5342 31.4425 51.3118 29.9753 50.867 32.158C50.667 33.1399 50.9948 35.2752 49.5631 38.0182C47.9337 41.1397 49.5484 45.0667 44.8325 45.0667V63.8994C48.0715 63.8994 51.3105 65.6932 54.5497 65.6932H62.4424C66.4694 65.6932 67.555 61.3604 66.2073 60.0683C68.2353 59.2094 68.8582 56.3029 67.7623 54.8964C69.8935 53.8453 70.1408 50.5292 68.7208 49.7433C70.2638 49.7098 71.5264 48.4713 71.5264 46.9916C71.5264 45.3367 70.2113 44.1694 68.6507 44.1694L56.9232 44.1698Z" fill="#EF5455"/>
<path fill-rule="evenodd" clip-rule="evenodd" d="M44.8322 63.8994V45.0667V44.1357H37.6084V64.8303H44.8322V63.8994Z" fill="#8481E2"/>
<path d="M58.4295 24.4189C57.6942 24.2419 56.9569 24.6937 56.78 25.4276C56.6031 26.1617 57.0546 26.9002 57.7887 27.0771C68.87 29.7485 76.6092 39.5859 76.6092 50.9999C76.6092 64.5695 65.5696 75.6092 51.9999 75.6092C38.4302 75.6092 27.3906 64.5695 27.3906 50.9999C27.3906 39.5863 35.1294 29.7489 46.2102 27.0773C46.9442 26.9002 47.3958 26.1617 47.2189 25.4277C47.0418 24.6937 46.303 24.2424 45.5694 24.419C39.7069 25.8326 34.3955 29.2214 30.6137 33.9613C26.7163 38.8461 24.6562 44.738 24.6562 50.9999C24.6562 66.0772 36.9226 78.3436 51.9999 78.3436C67.0772 78.3436 79.3435 66.0774 79.3435 50.9999C79.3435 44.7378 77.2835 38.8458 73.3858 33.9609C69.6039 29.2211 64.2922 25.8323 58.4295 24.4189Z" fill="black" fill-opacity="0.5"/>
<path d="M86.1757 47.7115L84.5762 44.7274L84.843 41.0382C85.0994 38.6735 84.1562 36.3657 82.3166 34.8607L79.6615 32.6866L78.6171 29.5404C78.0322 27.1349 76.2052 25.2014 73.8348 24.4854L70.5576 23.4953L68.0477 20.5941C66.5627 18.8473 64.3149 17.9387 62.0345 18.1627L58.633 18.5017L55.2893 16.8243C53.2287 15.7257 50.7718 15.7248 48.711 16.8241L45.7269 18.4235L42.0379 18.1566C39.6722 17.9001 37.3653 18.8435 35.8604 20.683L33.6862 23.3381L30.5401 24.3825C28.1345 24.9673 26.201 26.7943 25.485 29.1646L24.495 32.4419L21.5939 34.9519C19.8471 36.4369 18.938 38.6843 19.1623 40.965L19.5012 44.3666L17.8239 47.7103C16.7252 49.771 16.7244 52.2277 17.8236 54.2888L19.423 57.2728L19.1562 60.962C18.8998 63.3266 19.843 65.6343 21.6826 67.1394L24.3377 69.3135L25.382 72.4597C25.9668 74.8653 27.7938 76.7987 30.1643 77.5147L33.4414 78.5047L35.9515 81.406C37.4366 83.1527 39.6835 84.0619 41.9646 83.8374L45.366 83.4985L48.7094 85.1756C49.7402 85.7252 50.87 86.0001 51.9998 86.0001C53.1289 86.0001 54.2579 85.7256 55.2881 85.1761L58.2722 83.5768L61.9613 83.8437C64.3258 84.0996 66.6336 83.1568 68.1389 81.3173L70.313 78.6622L73.4593 77.6179C75.8647 77.0331 77.798 75.2061 78.514 72.8357L79.5041 69.5585L82.4054 67.0485C84.1521 65.5635 85.0613 63.3161 84.837 61.0353L84.4979 57.634L86.1751 54.2903C87.2738 52.2294 87.2749 49.7725 86.1757 47.7115ZM83.7565 53.0143C83.7505 53.0255 83.7446 53.0367 83.739 53.0479L81.8761 56.7618C81.76 56.9932 81.712 57.2528 81.7376 57.5105L82.1159 61.3045C82.2523 62.6917 81.6984 64.0603 80.6254 64.9727L77.4155 67.7498C77.2197 67.9192 77.0761 68.1405 77.0014 68.3882L75.8965 72.0448C75.4562 73.5027 74.2598 74.6237 72.7743 74.97C72.7337 74.9794 72.6935 74.9908 72.654 75.0039L69.0755 76.1916C68.8299 76.2732 68.6123 76.4227 68.4484 76.623L66.023 79.5852C65.1018 80.7112 63.6866 81.2862 62.2385 81.1233C62.2205 81.1212 62.2023 81.1196 62.1844 81.1182L58.0744 80.821C57.8156 80.8024 57.558 80.8573 57.3299 80.9796L53.9989 82.7648C52.7428 83.4348 51.2424 83.432 49.9853 82.757C49.9741 82.7512 49.9629 82.7453 49.9517 82.7397L46.2379 80.8768C46.047 80.7811 45.837 80.7316 45.6248 80.7316C45.5797 80.7316 45.5344 80.7337 45.4892 80.7383L41.6953 81.1163C40.3081 81.2533 38.9394 80.6989 38.027 79.6259L35.25 76.4161C35.0807 76.2203 34.8592 76.0766 34.6113 76.0018L30.9548 74.8973C29.4967 74.4569 28.3759 73.2605 28.0296 71.7749C28.0202 71.7343 28.0088 71.6942 27.9957 71.6546L26.808 68.076C26.7265 67.8303 26.577 67.6129 26.3767 67.449L23.4147 65.0235C22.2887 64.1023 21.7136 62.6875 21.8766 61.2391C21.8786 61.2211 21.8803 61.203 21.8816 61.1848L22.1789 57.0747C22.1976 56.8165 22.1425 56.5584 22.0203 56.3302L20.2349 52.9995C19.565 51.7433 19.5678 50.243 20.2425 48.9859C20.2486 48.9748 20.2543 48.9636 20.2599 48.9524L22.1228 45.2384C22.2389 45.0071 22.2869 44.7475 22.2612 44.4899L21.8832 40.6957C21.7467 39.3084 22.3006 37.9399 23.3737 37.0274L26.5835 34.2504C26.7793 34.081 26.9229 33.8596 26.9978 33.6119L28.1025 29.9552C28.5428 28.4973 29.7393 27.3765 31.2248 27.03C31.2654 27.0206 31.3055 27.0092 31.3451 26.9961L34.9235 25.8083C35.1692 25.7268 35.3865 25.5772 35.5505 25.377L37.9761 22.4148C38.8973 21.2889 40.3125 20.7142 41.7605 20.8769C41.7785 20.8789 41.7966 20.8806 41.8146 20.8819L45.9246 21.1792C46.1821 21.1975 46.4409 21.1428 46.6691 21.0206L49.9999 19.2353C51.256 18.5654 52.7564 18.5681 54.0134 19.243C54.0245 19.2488 54.0357 19.2547 54.0471 19.2603L57.761 21.1232C57.9923 21.2393 58.252 21.2874 58.5095 21.2616L62.3036 20.8836C63.6908 20.7469 65.0594 21.301 65.9719 22.3741L68.7489 25.5839C68.9182 25.7797 69.1397 25.9233 69.3875 25.9982L73.0441 27.1029C74.502 27.5433 75.6228 28.7398 75.9693 30.2253C75.9787 30.2659 75.9901 30.3059 76.0032 30.3456L77.191 33.9239C77.2726 34.1696 77.422 34.387 77.6223 34.5509L80.5845 36.9764C81.7105 37.8976 82.2854 39.3122 82.1224 40.7608C82.1204 40.7788 82.1187 40.7969 82.1175 40.815L81.8203 44.9252C81.8015 45.1833 81.8566 45.4414 81.9787 45.6696L83.7641 49.0005C84.4342 50.2569 84.4313 51.7573 83.7565 53.0143Z" fill="black" fill-opacity="0.5"/>
<path d="M46.0666 43.5509C45.8473 43.0888 45.3777 42.7685 44.8322 42.7685H37.6084C36.8533 42.7685 36.2412 43.3806 36.2412 44.1357V64.8301C36.2412 65.5852 36.8533 66.1973 37.6084 66.1973H44.8322C45.3989 66.1973 45.8849 65.8527 46.0922 65.3614C47.1344 65.5077 48.208 65.8041 49.3258 66.1137C51.0064 66.5789 52.7439 67.06 54.5493 67.06H62.4419C64.8818 67.06 66.8588 65.7665 67.7307 63.5997C68.1553 62.5439 68.2297 61.4483 67.9816 60.531C68.4355 60.1229 68.8191 59.6149 69.1092 59.0217C69.6973 57.8196 69.8147 56.4679 69.4814 55.3295C70.1026 54.7293 70.5661 53.9367 70.8084 53.0022C71.0349 52.1286 71.0309 51.2666 70.8294 50.5197C72.0626 49.7943 72.8932 48.4763 72.8932 46.9913C72.8932 45.8266 72.4397 44.7533 71.6161 43.9694C70.8253 43.2166 69.772 42.802 68.6504 42.802L57.5255 42.8022C56.6803 41.742 56.4173 40.3032 56.8985 39.145C57.8862 36.768 57.8249 34.756 56.7004 32.6212C55.8656 31.0368 53.621 29.4594 51.7344 29.7287C50.594 29.8917 49.7689 30.6976 49.5269 31.8849C49.4557 32.2342 49.4362 32.6115 49.4136 33.0485C49.3578 34.1264 49.2813 35.6027 48.3508 37.3853C47.7201 38.5938 47.5097 39.8367 47.324 40.9333C47.0581 42.5042 46.9292 43.2609 46.0666 43.5509ZM38.9756 45.5028H43.465V63.463H38.9756V45.5028ZM50.0201 41.3897C50.1794 40.4489 50.344 39.476 50.7749 38.6507C51.9812 36.3396 52.0833 34.368 52.1444 33.19C52.1607 32.8762 52.176 32.5798 52.2063 32.4308C52.2065 32.4298 52.2068 32.4287 52.207 32.4278C52.6813 32.4344 53.8485 33.0746 54.2812 33.896C55.0301 35.3173 55.055 36.4558 54.3736 38.0961C53.7591 39.5751 53.8053 41.2914 54.4131 42.8173C53.748 42.9098 53.2356 43.4793 53.2356 44.1698C53.2356 44.9248 53.8478 45.537 54.6027 45.537L68.6504 45.5366C69.067 45.5366 69.4508 45.6834 69.7308 45.95C69.9261 46.1358 70.1588 46.4675 70.1588 46.9914C70.1588 47.7248 69.4866 48.3589 68.6907 48.3762L65.1717 48.4528C64.4169 48.4692 63.8182 49.0944 63.8346 49.8494C63.8509 50.5942 64.4596 51.1869 65.201 51.1869C65.211 51.1869 65.2211 51.1869 65.2314 51.1866L68.162 51.1229C68.2576 51.3938 68.3074 51.9104 68.1061 52.5023C67.9348 53.0057 67.475 53.85 66.3184 53.85C65.5634 53.85 64.9512 54.4621 64.9512 55.2172C64.9512 55.9723 65.5634 56.5844 66.3184 56.5844C66.5257 56.5844 66.7291 56.5715 66.9282 56.5462C66.9451 56.9332 66.8655 57.3864 66.6532 57.8203C66.4022 58.3333 65.9061 58.945 64.9679 58.945C64.2129 58.945 63.6007 59.5571 63.6007 60.3122C63.6007 61.0672 64.2129 61.6793 64.9679 61.6793C65.1094 61.6793 65.2494 61.673 65.3876 61.6606C65.3841 61.923 65.3308 62.251 65.1816 62.6097C64.9672 63.1257 64.2709 64.3257 62.4422 64.3257H54.5496C53.1158 64.3257 51.6294 63.9141 50.0558 63.4784C48.8036 63.1317 47.5196 62.7765 46.1996 62.6179V46.318C49.2777 45.7601 49.7021 43.2683 50.0201 41.3897Z" fill="black" fill-opacity="0.5"/>
<path d="M52.0004 26.3907C52.7555 26.3907 53.3676 25.7787 53.3676 25.0236C53.3676 24.2685 52.7555 23.6564 52.0004 23.6564H51.9995C51.2444 23.6564 50.6328 24.2685 50.6328 25.0236C50.6328 25.7787 51.2453 26.3907 52.0004 26.3907Z" fill="black" fill-opacity="0.5"/>
</g>
<defs>
<clipPath id="clip0">
<rect width="70" height="70" fill="white" transform="translate(17 16)"/>
</clipPath>
</defs>
</svg>
