<svg width="100" height="100" viewBox="0 0 100 100" fill="none" xmlns="http://www.w3.org/2000/svg">
<path d="M100 50C100 77.6142 77.6142 100 50 100C22.3858 100 0 77.6142 0 50C0 22.3858 22.3858 0 50 0C77.6142 0 100 22.3858 100 50Z" fill="#C4C4C4" fill-opacity="0.5"/>
<g clip-path="url(#clip0)">
<path d="M28.9766 29.9537L35.0313 36.0085C39.63 31.4098 45.9829 28.5655 53.0002 28.5655V20.0028C43.6185 20.0028 35.1248 23.8055 28.9766 29.9537Z" fill="#F6E266"/>
<path d="M77.0237 29.9537L70.9689 36.0085C66.3703 31.4098 60.0174 28.5655 53 28.5655V20.0028C62.3818 20.0028 70.8754 23.8055 77.0237 29.9537Z" fill="#E49542"/>
<path d="M77.0213 29.9559L70.9688 36.0085C75.5674 40.6071 78.4117 46.96 78.4117 53.9774H86.9744C86.9744 44.5956 83.1695 36.104 77.0213 29.9559Z" fill="#EF5455"/>
<path d="M80.0021 33.3635C80.0974 34.1847 80.1488 35.0155 80.1488 35.8556C80.1488 39.6735 79.1442 43.3104 77.3281 46.6176C78.032 48.9474 78.412 51.4178 78.412 53.9773H86.9747C86.9747 46.2242 84.3743 39.0806 80.0021 33.3635Z" fill="#EF5455"/>
<path d="M28.9785 29.9559L35.0311 36.0085C30.4324 40.6071 27.5881 46.96 27.5881 53.9774H19.0254C19.0254 44.5956 22.8303 36.104 28.9785 29.9559Z" fill="#DD5790"/>
<path d="M57.297 58.2743L80.1487 26.8287L48.7031 49.6805L57.297 58.2743Z" fill="#EF5455"/>
<path d="M53.0001 53.9774C56.8139 53.9774 59.9055 50.8858 59.9055 47.072C59.9055 43.2583 56.8139 40.1666 53.0001 40.1666C49.1864 40.1666 46.0947 43.2583 46.0947 47.072C46.0947 50.8858 49.1864 53.9774 53.0001 53.9774Z" fill="#EF5455"/>
<path d="M56.4346 41.0824C57.016 42.0943 57.3503 43.2662 57.3503 44.517C57.3503 48.3308 54.2587 51.4224 50.4449 51.4224C49.1941 51.4224 48.0221 51.0882 47.0103 50.5067C48.2018 52.58 50.437 53.9774 52.9999 53.9774C56.8137 53.9774 59.9053 50.8858 59.9053 47.072C59.9053 44.5091 58.5079 42.2739 56.4346 41.0824Z" fill="#EF5455"/>
<path d="M41.3989 59.5017V65.5784H64.6011V59.5017C64.6011 56.4507 62.1277 53.9774 59.0768 53.9774H46.9233C43.8723 53.9774 41.3989 56.4508 41.3989 59.5017Z" fill="#EF5455"/>
<path d="M59.0768 53.9774H55.7622C58.8132 53.9774 61.2865 56.4508 61.2865 59.5017V65.5784H64.6011V59.5017C64.6012 56.4508 62.1278 53.9774 59.0768 53.9774Z" fill="#EF5455"/>
<path d="M41.3989 69.9979H64.6011V74.4174H41.3989V69.9979Z" fill="#EF5455"/>
<path d="M77.3865 53.9774C77.3865 54.5439 77.8456 55.0028 78.4119 55.0028H86.9746C87.5409 55.0028 88 54.5439 88 53.9774C88 45.1878 84.7531 36.8407 78.8387 30.3753L80.9777 27.432C81.2743 27.024 81.23 26.461 80.8735 26.1043C80.8737 26.1042 80.8737 26.104 80.8738 26.1039C73.4285 18.6583 63.5294 14.5579 53 14.5579C52.4337 14.5579 51.9746 15.0168 51.9746 15.5833C51.9746 16.1497 52.4337 16.6086 53 16.6086C62.5792 16.6086 71.6066 20.1905 78.5572 26.7176L76.6052 28.1362C70.1414 22.2234 61.7932 18.9774 53 18.9774C47.7135 18.9774 42.6338 20.1267 37.9021 22.3935C37.3914 22.6381 37.1758 23.2506 37.4204 23.7612C37.6651 24.2719 38.2776 24.4877 38.7881 24.2429C42.9344 22.2566 47.3657 21.1833 51.9746 21.0446V27.5613C48.7679 27.6826 45.6553 28.3718 42.709 29.6184C39.8754 30.8166 37.3026 32.4821 35.0461 34.5732L30.4381 29.9652C31.7814 28.7029 33.2292 27.5519 34.7553 26.5372C35.2268 26.2237 35.3549 25.5871 35.0413 25.1156C34.7278 24.6442 34.0912 24.5158 33.6197 24.8295C31.6977 26.1076 29.8912 27.5874 28.2506 29.2281C28.2296 29.2491 28.2095 29.2711 28.1905 29.2938C21.6183 35.8987 18 44.661 18 53.9774C18 54.5439 18.4591 55.0028 19.0254 55.0028H27.5881C28.1544 55.0028 28.6135 54.5439 28.6135 53.9774C28.6135 47.4635 31.1502 41.3396 35.7561 36.7336C37.9962 34.4934 40.6043 32.7352 43.5079 31.5073C46.5134 30.2355 49.707 29.5908 53 29.5908C58.3416 29.5908 63.5321 31.3492 67.7589 34.5647L58.4564 41.3248C57.0336 39.9732 55.1127 39.1413 53 39.1413C48.6269 39.1413 45.0692 42.699 45.0692 47.072C45.0692 49.4017 46.0793 51.4998 47.6841 52.952H46.9233C43.3117 52.952 40.3736 55.8903 40.3736 59.5018V65.5786C40.3736 66.145 40.8327 66.604 41.399 66.604H64.6011C65.1674 66.604 65.6265 66.145 65.6265 65.5786V59.5018C65.6265 56.9202 64.1247 54.6832 61.9491 53.6169L66.4103 47.4775C66.7432 47.0194 66.6417 46.3782 66.1837 46.0451C65.7255 45.7122 65.0842 45.8138 64.7513 46.2718L59.8616 53.0006C59.6041 52.9697 59.3425 52.9519 59.0767 52.9519H58.3159C59.9207 51.4997 60.9308 49.4016 60.9308 47.0719C60.9308 45.5498 60.4989 44.1271 59.7524 42.9181L75.5099 31.4671L67.5637 42.4015C67.2308 42.8596 67.3322 43.5008 67.7904 43.8339C67.9725 43.9661 68.1833 44.0299 68.3923 44.0299C68.7094 44.0298 69.0221 43.8833 69.2226 43.6072L72.4128 39.2174C73.6493 40.8411 74.6755 42.6076 75.4701 44.4853C76.7418 47.4907 77.3865 50.6844 77.3865 53.9774ZM26.582 52.952H20.0664C20.3116 44.8787 23.4526 37.3033 28.9908 31.4184L33.5958 36.0234C29.285 40.6736 26.8219 46.6157 26.582 52.952ZM54.0254 27.5612V21.0457C61.7849 21.2831 69.122 24.2094 74.9078 29.3696L69.485 33.3103C65.0842 29.7972 59.6575 27.7802 54.0254 27.5612ZM59.0767 55.0028C61.5575 55.0028 63.5756 57.0211 63.5756 59.5018V64.5532H59.8258V62.8163C59.8258 62.2499 59.3667 61.7909 58.8004 61.7909C58.2341 61.7909 57.775 62.2499 57.775 62.8163V64.5532H48.2247V62.8163C48.2247 62.2499 47.7656 61.7909 47.1993 61.7909C46.633 61.7909 46.1739 62.2499 46.1739 62.8163V64.5532H42.4241V59.5018C42.4241 57.0209 44.4424 55.0028 46.923 55.0028H59.0767ZM53 52.952C49.7577 52.952 47.12 50.3143 47.12 47.072C47.12 43.8298 49.7577 41.192 53 41.192C56.2423 41.192 58.88 43.8298 58.88 47.072C58.88 50.3143 56.2423 52.952 53 52.952ZM77.6054 32.0722C82.7671 37.8595 85.696 45.1957 85.9335 52.952H79.4179C79.2966 49.7452 78.6054 46.6328 77.3586 43.6862C76.4176 41.4623 75.1767 39.3824 73.6668 37.4919L77.6054 32.0722Z" fill="black" fill-opacity="0.7"/>
<path d="M64.6006 68.9725H49.366C48.7997 68.9725 48.3406 69.4315 48.3406 69.9979C48.3406 70.5643 48.7997 71.0233 49.366 71.0233H63.5752V73.3913H42.4248V71.0233H44.5809C45.1471 71.0233 45.6062 70.5643 45.6062 69.9979C45.6062 69.4315 45.1471 68.9725 44.5809 68.9725H41.3994C40.8331 68.9725 40.374 69.4315 40.374 69.9979V74.4167C40.374 74.9831 40.8331 75.4421 41.3994 75.4421H64.6006C65.1669 75.4421 65.626 74.9831 65.626 74.4167V69.9979C65.626 69.4316 65.1669 68.9725 64.6006 68.9725Z" fill="black" fill-opacity="0.7"/>
<path d="M86.9748 57.2489H78.4121C77.8458 57.2489 77.3867 57.7079 77.3867 58.2743C77.3867 58.8407 77.8458 59.2997 78.4121 59.2997H86.9748C87.5411 59.2997 88.0002 58.8407 88.0002 58.2743C88.0002 57.7079 87.5411 57.2489 86.9748 57.2489Z" fill="black" fill-opacity="0.7"/>
<path d="M84.2123 61.6683H81.1738C80.6075 61.6683 80.1484 62.1273 80.1484 62.6937C80.1484 63.2602 80.6075 63.7191 81.1738 63.7191H84.2123C84.7786 63.7191 85.2377 63.2602 85.2377 62.6937C85.2377 62.1273 84.7786 61.6683 84.2123 61.6683Z" fill="black" fill-opacity="0.7"/>
<path d="M27.5881 57.2489H19.0254C18.4591 57.2489 18 57.7079 18 58.2743C18 58.8407 18.4591 59.2997 19.0254 59.2997H27.5881C28.1544 59.2997 28.6135 58.8407 28.6135 58.2743C28.6135 57.7079 28.1544 57.2489 27.5881 57.2489Z" fill="black" fill-opacity="0.7"/>
<path d="M24.826 61.6683H21.7876C21.2213 61.6683 20.7622 62.1273 20.7622 62.6937C20.7622 63.2602 21.2213 63.7191 21.7876 63.7191H24.826C25.3923 63.7191 25.8514 63.2602 25.8514 62.6937C25.8514 62.1273 25.3923 61.6683 24.826 61.6683Z" fill="black" fill-opacity="0.7"/>
</g>
<defs>
<clipPath id="clip0">
<rect width="70" height="70" fill="white" transform="translate(18 10)"/>
</clipPath>
</defs>
</svg>
