<svg width="794" height="668" viewBox="0 0 794 668" fill="none" xmlns="http://www.w3.org/2000/svg">
<g clip-path="url(#clip0)">
<path d="M485.243 118.52L510.843 113.594C510.843 113.594 512.974 102.885 512.334 100.961C511.694 99.0375 511.093 94.8603 507.47 93.5741C503.847 92.2879 498.966 82.0433 486.818 90.1853C474.669 98.3273 481.174 108.03 481.174 108.03L485.243 118.52Z" fill="url(#paint0_linear)"/>
<path d="M503.274 97.0303C503.274 97.0303 490.535 101.974 487.636 103.182C484.736 104.389 483.184 107.907 483.184 107.907C483.184 107.907 481.759 107.057 481.759 109.484C481.759 111.911 482.944 117.38 483.807 118.772C485.29 121.133 486.641 123.575 487.853 126.087C489.033 128.592 488.604 133.792 487.396 134.519C486.189 135.246 464.674 154.684 464.674 154.684L446.781 136.035L425.35 114.785L416.278 95.8C416.278 95.8 407.63 81.5738 406.484 79.8962C397.579 66.7102 395.503 72.9118 395.025 78.0005C394.886 79.4824 395.348 85.136 396.271 86.3047L438.05 139.429L447.51 142.784L464.646 154.656L470.929 165.343L530.399 176.08L538.129 207.227L545.364 166.07L547.696 157.777C547.723 157.677 547.782 157.589 547.863 157.525C547.945 157.461 548.044 157.425 548.147 157.422C548.25 157.418 548.352 157.448 548.437 157.507C548.522 157.566 548.586 157.651 548.619 157.749L549.949 161.579C550.506 161.104 549.354 162.916 549.949 161.579L552.671 163.777C553.601 164.529 554.295 165.535 554.67 166.674C555.045 167.812 555.085 169.036 554.786 170.197L545.653 205.717C545.653 205.717 508.082 137.74 506.179 133.714C505.322 131.908 506.235 127.563 506.736 125.326C507.192 123.274 508.188 120.713 509.156 119.98C510.125 119.248 511.811 115.853 511.811 114.388C511.811 112.923 512.095 108.304 510.848 109.529C510.509 109.864 508.85 107.241 508.366 105.055C507.57 101.9 505.784 99.0868 503.274 97.0303Z" fill="url(#paint1_linear)"/>
<path d="M464 233.856C464 233.856 455.413 304.741 454.884 309.271C454.356 313.8 457.8 337.499 457.8 342.029C457.8 346.559 466.221 394.829 466.221 394.829L479.533 394.225C479.533 394.225 476.884 323.117 477.145 319.655C477.407 316.194 491.988 274.919 491.988 274.919C491.988 274.919 493.051 285.84 493.051 289.302C493.051 292.763 497.085 393.314 497.085 393.314H508.689L525.19 245.225L524.872 242.373L464 233.856Z" fill="url(#paint2_linear)"/>
<path d="M498.36 152.475C498.169 152.736 497.917 152.946 497.627 153.087C497.337 153.228 497.016 153.295 496.694 153.283C496.372 153.271 496.058 153.18 495.779 153.018C495.5 152.855 495.264 152.627 495.093 152.352C494.413 151.327 493.799 150.259 493.257 149.154C492.311 147.258 485.02 136.409 485.02 136.409C485.02 136.409 470.734 135.375 467.612 133.999C464.396 132.584 461.418 133.406 457.745 132.294C454.45 131.298 445.691 126.265 443.47 125.186C437.649 122.345 434.193 118.85 425.372 108.41C419.017 100.872 416.83 94.7429 415.75 93.8705C411.927 90.7558 402.538 97.0524 402.538 97.0524C402.538 97.0524 419.089 128.798 424.615 134.021C430.676 139.731 442.546 147.7 451.679 149.797C458.741 151.424 466.149 165.835 466.822 168.536C468.731 176.432 462.648 227.811 462.648 227.811C462.648 227.811 462.414 237.547 464.318 238.498C465.987 239.337 486.517 247.233 491.242 249.05C491.368 249.098 491.501 249.12 491.636 249.114C491.77 249.109 491.901 249.077 492.023 249.02C492.144 248.962 492.253 248.881 492.343 248.78C492.432 248.68 492.501 248.562 492.544 248.435L495.561 239.745C495.572 239.707 495.596 239.674 495.627 239.651C495.659 239.628 495.697 239.615 495.736 239.615C495.775 239.615 495.813 239.628 495.845 239.651C495.876 239.674 495.9 239.707 495.911 239.745L498.794 249.251C498.874 249.478 499.033 249.669 499.242 249.787C499.45 249.905 499.695 249.943 499.929 249.894L525.19 244.431C525.19 244.431 524.839 197.597 525.273 189.774C525.696 182.108 524.717 177.841 526.092 179.91C527.6 182.231 530.961 205.974 532.67 209.095C534.044 211.617 538.112 212.808 541.335 213.367C542.582 213.588 543.866 213.472 545.054 213.031C546.242 212.59 547.292 211.839 548.096 210.856L551.597 206.567C552.582 205.359 552.153 199.197 552.02 197.62C551.602 192.436 551.647 185.06 552.192 181.559C552.905 177.047 541.429 183.092 541.429 178.098C541.429 169.889 534.962 151.284 534.962 151.284C534.962 151.284 533.777 146.296 525.273 143.685C516.77 141.073 510.364 137.304 508.75 137.321C507.237 137.321 502.478 146.408 500.352 149.019C499.412 150.21 499.579 150.758 498.36 152.475Z" fill="url(#paint3_linear)"/>
<path d="M507.331 393.157L497.23 393.258C497.23 393.258 495.149 402.954 494.064 406.998C493.991 407.255 493.78 407.915 493.635 408.39C493.478 409.085 493.411 409.797 493.435 410.509C493.641 414.183 495.004 417.292 498.254 418.953C501.833 420.776 504.593 422.454 508.4 418.953C512.206 415.453 512.713 413.249 511.249 407.171C509.785 401.092 509.318 393.398 508.416 393.191" fill="#4B44BE"/>
<path d="M454.111 405.7C461.563 403.62 466.549 394.768 466.549 394.768L479.294 394.102C479.294 394.102 479.956 403.05 480.323 407.646C480.802 413.697 479.605 416.398 475.031 416.073C469.02 415.643 444.489 417.583 440.643 415.425C435.634 412.629 447.132 407.646 454.111 405.7Z" fill="#4B44BE"/>
<path opacity="0.07" d="M494.019 267.711C492.377 272.542 485.972 281.903 481.87 287.479C477.769 293.054 464.852 304.965 465.67 319.448C466.488 333.932 475.225 371.113 475.225 374.457C475.225 377.801 471.959 393.61 469.488 398.453C467.017 403.296 465.854 412.092 467.084 412.092C469.415 412.021 471.732 411.712 474.001 411.169C476.121 410.61 479.043 410.051 480.234 409.492C481.075 409.1 481.253 406.366 481.253 406.366C481.336 405.193 481.202 404.016 480.857 402.893C480.579 402.172 479.538 398.486 479.5 397.424C478.982 383.807 477.83 352.313 478.064 350.11C478.487 345.983 475.231 325.208 478.203 314.969C481.175 304.73 494.019 267.711 494.019 267.711Z" fill="black"/>
<path opacity="0.07" d="M463.143 241.853L460.961 258.842C460.961 258.842 463.188 262.348 463.744 259.401C464.301 256.454 468.998 250.845 466.165 246.858C463.332 242.871 463.143 241.853 463.143 241.853Z" fill="black"/>
<path opacity="0.07" d="M525.029 246.617L524.266 254.715L523.27 262.544C523.27 262.544 520.053 264.887 520.104 261.85C520.154 258.814 514.683 254.183 518.84 251.097C522.997 248.01 525.029 246.617 525.029 246.617Z" fill="black"/>
<path opacity="0.07" d="M484.959 136.571C485.515 136.448 482.176 137.365 485.109 136.392C490.118 134.715 488.036 125.208 488.036 125.208C488.036 125.208 488.554 128.77 493.312 130.202C497.976 131.6 499.356 130.565 492.199 133.96C485.159 137.315 488.788 138.473 489.266 142.834" fill="black"/>
<path opacity="0.07" d="M467.161 176.448L462.648 228.701C462.648 228.701 462.704 237.385 464.318 238.694C465.931 240.002 470.996 240.841 472.164 241.68C473.333 242.518 485.677 246.623 482.455 239.694C481.731 238.151 465.035 228.745 472.487 218.959C479.939 209.173 478.609 195.501 475.031 185.994C471.452 176.488 467.106 162.289 467.106 162.289L467.161 176.448Z" fill="black"/>
<path opacity="0.07" d="M542.075 179.585C542.075 179.585 545.904 180.922 549.171 179.552C554.057 177.505 550.913 195.003 551.886 200.729C552.627 205.035 548.052 214.508 541.313 213.384C534.573 212.26 532.33 211.572 530.911 202.614C529.832 195.758 540.294 193.784 540.294 187.258C540.294 180.732 542.075 179.585 542.075 179.585Z" fill="black"/>
<path opacity="0.07" d="M525.14 193.644C525.14 193.644 527.093 175.056 525.14 168.541C523.186 162.026 521.467 160.712 521.467 160.712L525.14 193.644Z" fill="black"/>
</g>
<g clip-path="url(#clip1)">
<path d="M213.517 553.972L222.161 551.305L226.282 622.482L222.889 624L213.517 553.972Z" fill="white"/>
<path d="M278.753 533.419L291.881 529.234L307.999 594.34L304.242 595.447L278.753 533.419Z" fill="white"/>
<path d="M124.488 548.598L107.927 602.339L103.483 600.288L111.158 546.547L124.488 548.598Z" fill="white"/>
<path d="M201.924 556.269H206.771L213.517 553.972L222.888 624L218.768 622.892L201.924 556.269Z" fill="white"/>
<path d="M185.161 351.518L262.354 351.149L260.859 525.05L196.027 531.122L186.776 534.896L111.28 530.26L111.482 525.337L194.168 514.794L185.161 351.518Z" fill="url(#paint4_linear)"/>
<path d="M158.621 351.805L185.16 351.518L197.642 521.44L106.634 526.322L101.504 488.908L122.468 484.764L169.649 482.139L158.621 351.805Z" fill="url(#paint5_linear)"/>
<path d="M91.0015 529.316L91.4458 540.844C91.4458 540.844 91.2438 545.603 97.2222 545.808C103.2 546.013 201.883 556.228 201.883 556.228C201.883 556.228 209.8 558.361 222.121 551.264L293.255 528.373C293.255 528.373 295.719 528.168 295.476 523.86C295.234 519.553 307.635 355.62 307.635 355.169C307.635 354.718 306.019 353.036 302.828 352.831C299.92 352.667 269.422 350.779 269.422 350.779L269.584 475.452C269.584 475.452 270.392 486.897 265.262 487.349C253.507 488.374 205.559 487.636 199.379 492.641C195.218 496.046 204.59 525.214 205.559 531.162C205.842 533.009 193.037 532.188 189.038 533.296C185.806 534.239 91.0015 529.316 91.0015 529.316Z" fill="url(#paint6_linear)"/>
<path d="M192.027 488.497C192.027 488.497 184.837 488.497 184.554 493.584C184.271 497.851 184.11 524.065 184.069 532.393C184.069 533.583 183.989 534.732 183.746 535.88C183.463 537.316 184.998 540.352 188.594 540.434C195.501 540.639 203.257 540.434 203.257 540.434C203.257 540.434 206.569 539.408 205.963 533.706C205.357 528.004 199.177 498.63 199.177 498.63C199.177 498.63 197.319 491.656 203.862 491.656C210.406 491.656 262.515 487.841 262.515 487.841C262.515 487.841 269.705 488.169 269.988 481.482C270.27 474.795 271.563 355.661 271.563 355.661C271.563 355.661 272.492 350.574 268.129 350.287C263.767 350 255.042 350.902 255.042 350.902C255.042 350.902 252.214 351.231 252.214 355.333C252.214 359.436 257.142 478.2 256.577 480.621C255.728 484.354 246.721 485.215 242.035 485.544C237.349 485.872 192.027 488.497 192.027 488.497Z" fill="#2B3252" fill-opacity="0.9"/>
<path d="M142.344 357.876C142.344 357.876 141.536 349.507 147.11 350C150.988 350.369 154.826 350.984 158.663 351.764C158.663 351.764 161.046 351.435 161.491 354.184C161.935 356.933 180.153 482.261 178.901 482.754C177.648 483.246 114.27 486.979 112.856 486.979C111.442 486.979 106.232 486.815 106.878 490.999C107.524 495.184 111.523 524.188 111.523 525.337C111.523 526.485 112.048 530.752 110.958 531.08C109.867 531.408 91.0435 530.506 91.0435 530.506L92.4573 491.122C92.4573 491.122 92.3765 484.436 96.1735 483.943C99.9706 483.451 165.773 480.825 166.54 480.046C167.307 479.267 165.288 472.498 164.48 469.462C164.076 467.739 142.344 357.876 142.344 357.876Z" fill="#2B3252" fill-opacity="0.9"/>
</g>
<g clip-path="url(#clip2)">
<path d="M198.068 517.519C194.696 511.921 192.009 510.435 183.663 510.207C175.318 509.978 164.228 510.092 164.228 510.092L164.114 521.918C164.114 521.918 173.317 527.231 178.233 529.859C178.519 530.031 179.319 530.488 179.891 530.831C180.748 531.231 181.663 531.573 182.577 531.802C187.436 532.83 191.837 532.316 194.981 529.174C198.468 525.689 201.441 523.118 198.068 517.519Z" fill="#4B49BB"/>
<path d="M135.133 507.008C134.847 507.236 134.104 507.807 133.589 508.207C132.903 508.836 132.274 509.578 131.703 510.321C128.959 514.434 127.759 518.719 129.531 522.833C131.474 527.346 132.789 531.116 139.191 530.031C145.593 528.945 148.051 527.003 151.367 519.405C154.682 511.806 158.741 501.409 158.683 501.409L147.765 496.895C147.765 496.895 139.42 503.465 135.133 507.008Z" fill="#4B49BB"/>
<path d="M164.971 510.607C164.971 510.607 165.143 522.547 163.199 522.833C161.256 523.118 134.447 519.233 123.757 518.662C113.068 518.091 88.8311 511.178 76.9413 497.752C66.6521 486.155 68.2527 473.301 75.8553 473.301C83.4578 473.301 90.4316 466.845 109.752 476.043C129.073 485.241 149.537 486.783 161.027 485.869C172.517 484.955 204.699 479.014 207.214 477.186C209.729 475.357 221.79 470.101 238.596 471.93C255.402 473.758 247.456 487.069 243.912 492.211C238.939 499.352 227.164 507.007 217.332 507.35C207.5 507.693 164.971 510.607 164.971 510.607Z" fill="url(#paint7_linear)"/>
<path d="M145.078 301.796C139.419 303.853 132.217 331.847 132.217 331.847L132.103 331.732L131.302 335.617L130.331 340.702L132.217 371.095L150.509 380.236L192.523 391.548L204.127 408.058C204.127 408.058 230.136 434.509 230.307 436.338C230.479 438.166 202.355 447.478 199.668 447.878C193.209 448.849 240.997 437.137 225.677 418.57C219.161 410.629 209.615 386.749 190.694 370.924C179.719 361.783 182.805 335.789 178.918 319.335C174.06 298.768 171.087 292.598 166.228 292.598C161.827 292.598 155.711 297.854 145.078 301.796Z" fill="url(#paint8_linear)"/>
<path d="M204.527 368.239C195.724 360.183 192.752 358.241 185.035 360.983C177.318 363.725 173.545 366.239 163.028 367.953C156.568 369.095 149.88 368.239 143.878 365.611L122.214 367.781C119.47 367.439 88.6595 425.254 87.9164 437.252C87.4591 444.621 104.208 455.99 108.895 457.133C110.781 457.59 114.154 439.423 115.24 437.766L108.209 435.595C109.467 432.453 113.697 424.683 116.498 420.513C117.355 419.199 124.043 408.172 124.958 403.945C125.129 404.345 126.101 412.343 127.015 414.914C128.73 419.656 131.074 422.341 131.074 426.111C131.074 429.882 130.617 444.85 127.873 451.591C125.129 458.333 121.128 473.929 121.128 473.929L190.408 473.529C190.408 473.529 187.893 443.765 188.922 433.538C188.922 433.538 187.836 429.425 189.894 423.483C193.266 413.657 194.238 399.032 193.666 396.746C192.809 393.147 214.016 423.598 218.646 431.31C220.59 434.509 194.238 440.165 192.066 442.622C189.779 445.193 194.295 452.163 194.295 452.163C194.295 452.163 240.254 446.564 240.025 439.537C239.796 432.51 214.759 377.551 204.527 368.239Z" fill="url(#paint9_linear)"/>
<path d="M150.623 285.343C150.623 285.343 137.762 285.857 134.046 299.34C130.331 312.822 129.816 331.618 129.702 334.532C129.588 337.617 131.017 355.67 124.1 363.211C118.155 369.724 120.556 376.008 119.07 381.207L118.384 389.834C118.498 390.862 119.241 391.719 120.213 392.062C121.128 392.347 124.329 390.862 124.9 390.634C132.903 387.434 132.903 384.863 135.933 382.293C138.448 380.179 145.364 375.266 147.422 373.323C149.48 371.381 150.909 369.667 151.023 367.21C151.424 354.699 149.251 343.158 146.508 337.046C143.764 330.933 138.505 320.592 142.906 313.736C147.308 306.881 155.253 300.025 155.711 298.311C156.168 296.597 156.397 304.938 161.255 307.852C166.114 310.766 170.173 314.822 171.659 318.764C172.916 322.077 174.574 327.733 170.001 337.503C165.428 347.272 161.713 359.84 168.172 369.153C174.631 378.465 188.236 388.52 190.465 393.204C192.98 398.403 190.58 410.629 190.122 417.999C189.665 425.369 204.527 405.202 204.07 395.604C203.613 386.006 205.213 381.893 196.01 367.153C186.807 352.413 180.805 327.162 180.576 321.049C180.348 314.936 177.604 297.969 172.059 293.112C167.257 288.999 166.229 285 156.397 285C154.453 285 152.51 285.114 150.623 285.343Z" fill="url(#paint10_linear)"/>
<path opacity="0.07" d="M121.299 489.64L186.236 489.983C186.236 489.983 178.633 495.924 174.975 496.61C171.316 497.295 155.654 505.065 149.823 502.094C145.708 499.866 121.299 489.64 121.299 489.64Z" fill="black"/>
<path opacity="0.07" d="M157.483 343.901C157.483 343.901 163.542 345.444 166.057 341.902C171.716 333.903 166.572 345.958 166.572 345.958C166.572 345.958 164.914 350.643 165.028 352.985C165.143 355.327 158.512 344.244 157.483 343.901Z" fill="black"/>
<path opacity="0.07" d="M133.246 385.035C132.503 385.949 131.417 386.692 130.845 389.034C129.873 392.805 128.844 397.032 126.215 400.917C124.672 403.202 125.529 412.057 128.101 417.656C128.844 419.256 131.131 423.426 131.074 424.397L130.902 432.51H137.876C137.876 432.51 143.821 433.138 142.563 428.225C141.477 423.883 135.818 407.715 139.648 404.173C146.85 397.603 137.762 384.464 141.134 380.236C144.05 376.58 148.222 373.952 148.222 372.752C148.222 372.295 147.136 373.78 146.393 374.294C144.964 375.323 144.221 376.123 143.021 376.922C141.706 377.779 139.705 379.208 138.39 380.179C136.504 381.607 134.789 383.207 133.246 385.035Z" fill="black"/>
<path d="M106.094 437.08C106.094 437.08 106.036 432.853 110.209 432.681C114.382 432.51 202.755 432.624 202.755 432.624C202.755 432.624 206.642 433.081 206.756 436.223C206.871 439.365 206.871 486.041 206.871 486.041C206.871 486.041 206.928 489.64 203.098 489.754C199.268 489.868 109.18 489.868 109.18 489.868C109.18 489.868 105.808 489.011 105.865 485.641C105.922 482.27 106.094 437.08 106.094 437.08Z" fill="white"/>
<path d="M156.74 465.074C158.855 465.074 160.569 463.36 160.569 461.246C160.569 459.132 158.855 457.419 156.74 457.419C154.624 457.419 152.91 459.132 152.91 461.246C152.91 463.36 154.624 465.074 156.74 465.074Z" fill="#77C7E8"/>
</g>
<path d="M368.505 554.716C368.505 554.716 363.78 559.891 360.237 560.09C357.218 560.223 356.825 561.417 356.825 563.474C356.825 565.531 369.949 565.133 374.214 564.337C377.233 563.806 375.133 554.849 375.133 554.849L368.505 554.716Z" fill="#4B49BB"/>
<path d="M410.174 553.787L404.202 554.385C404.202 554.385 399.74 559.626 396.262 560.09C393.244 560.488 392.522 561.815 392.653 563.872C392.784 565.929 407.615 564.536 410.174 562.811C412.733 561.086 410.174 553.787 410.174 553.787Z" fill="#4B49BB"/>
<path d="M398.362 345.99C397.181 359.458 396 359.126 392.259 363.837C390.422 366.159 387.403 369.012 387.075 371.997C387.01 372.661 387.272 373.258 387.797 373.722L391.734 376.907L393.375 378.168C393.506 378.3 393.637 378.433 393.703 378.566L407.352 401.19L407.418 401.256L415.882 417.578C416.407 418.573 415.62 421.691 414.833 422.554C410.764 426.933 401.38 431.577 402.758 435.956C407.286 450.419 403.612 447.036 400.987 444.713C399.609 443.453 397.771 437.482 397.115 434.828C396.459 432.174 408.927 419.568 407.614 417.578C406.433 415.72 397.181 402.252 395.737 400.128C395.606 399.929 395.475 399.797 395.212 399.664L386.485 395.086C385.829 394.754 384.975 395.02 384.647 395.683C384.516 395.949 384.451 396.214 384.516 396.546L397.903 475.034V475.1L400.265 496.066C400.265 496.066 400.265 496.132 400.265 496.198C400.331 498.72 401.446 510.662 401.709 513.051C402.365 517.828 403.48 520.15 404.333 524.595L409.845 552.261C409.977 553.058 410.633 555.114 409.845 555.247L405.318 555.313C404.661 555.38 404.005 554.053 403.808 553.389L394.162 523.732C393.506 521.477 390.225 515.041 389.306 510.065C387.994 503.231 386.747 495.469 386.157 492.483L383.335 476.162C383.269 475.631 383.466 475.034 383.926 474.769L391.341 469.992C391.931 469.66 392.128 468.93 391.866 468.267L383.663 448.296C383.335 447.566 382.548 447.301 381.826 447.566C381.301 447.832 380.973 448.363 381.038 448.96L383.466 473.176C383.466 473.243 383.466 473.375 383.466 473.442L382.023 491.488C382.023 491.554 382.023 491.554 382.023 491.621L378.085 515.638C378.085 515.704 378.085 515.704 378.085 515.771L375.198 553.721C375.132 554.451 375.001 556.043 374.345 556.043L369.489 556.242C368.702 556.242 368.374 554.451 368.374 553.655L368.242 534.414V534.348L367.324 520.879C367.324 520.879 367.324 520.813 367.324 520.747C366.864 518.027 367.192 512.188 367.324 508.075C367.521 502.435 367.98 499.25 368.045 498.255L368.505 482.531C368.505 482.465 368.505 482.398 368.505 482.332L366.077 464.883C366.077 464.816 366.077 464.75 366.077 464.684V391.702C366.077 390.906 365.486 390.309 364.699 390.309C364.24 390.309 363.846 390.508 363.583 390.906C360.368 395.551 356.562 399.863 352.297 403.578C348.359 406.896 345.932 407.493 344.75 407.559C344.291 407.559 343.832 407.36 343.569 406.962L322.571 377.372C322.308 376.973 321.783 376.774 321.324 376.774L318.174 377.106C318.109 377.106 317.977 377.106 317.912 377.106C313.056 376.642 310.3 375.182 308.659 374.585C308.134 374.386 307.872 373.855 308.069 373.391C308.134 373.192 308.266 373.059 308.397 372.926C310.89 371.135 313.909 370.073 316.993 369.941C320.537 370.007 324.08 370.936 327.23 372.595C327.361 372.661 327.558 372.794 327.624 372.926L344.947 395.02C345.407 395.617 346.26 395.75 346.85 395.285C346.981 395.219 347.047 395.086 347.113 394.953L354.003 385.001C354.134 384.802 354.265 384.67 354.462 384.603L374.804 372.794C375.329 372.462 375.789 371.997 375.986 371.4C376.707 369.344 377.495 367.287 374.476 361.382C372.376 357.269 370.08 340.815 382.285 332.189C384.779 330.398 383.532 333.516 385.632 333.516C393.703 333.516 396.787 342.672 396.787 342.672" fill="url(#paint11_linear)"/>
<path d="M374.87 372.993C374.87 376.31 376.97 382.414 383.991 382.414C388.519 382.414 389.569 377.703 389.831 375.779C389.963 374.651 391.734 376.575 392.784 377.173C402.824 383.276 407.746 401.721 407.746 401.721L396.918 402.981L395.54 430.25L411.027 476.162C411.289 476.892 410.895 477.688 410.174 477.953C409.977 478.019 409.78 478.019 409.517 478.019C403.48 477.223 386.944 475.233 383.926 477.356C376.182 482.664 356.562 480.342 356.562 478.351C356.562 475.432 365.814 426.468 365.814 426.468L360.302 394.688L358.727 393.427L352.69 387.125L358.793 377.239C360.959 374.718 364.24 373.258 367.521 372.727C369.161 372.462 370.867 372.329 372.508 372.263C373.886 372.396 374.87 372.528 374.87 372.993Z" fill="url(#paint12_linear)"/>
<path d="M396.591 358.794C396.066 358.994 395.475 358.794 395.147 358.33C392.588 354.946 382.22 341.213 381.826 340.35C381.367 339.355 374.214 347.98 373.099 351.231C371.786 355.145 371.458 345.061 370.868 343.535C370.277 342.009 365.355 349.838 362.796 350.501C360.237 351.165 359.45 349.506 357.744 352.558C356.759 354.416 358.662 341.213 365.224 336.834C369.489 333.981 370.671 341.345 370.671 341.345C373.099 337.962 376.248 335.175 379.857 333.185C385.107 330.265 390.16 330.066 396.853 336.369C400.725 340.018 404.006 347.317 403.874 350.7C403.743 353.951 407.024 351.165 407.615 350.501C408.205 349.838 413.914 351.364 412.93 356.207C411.946 361.05 411.749 360.785 408.205 363.638C406.237 365.164 404.531 367.021 403.284 369.078V356.804C403.218 355.477 399.412 357.733 396.591 358.794Z" fill="url(#paint13_linear)"/>
<path opacity="0.07" d="M381.826 367.021C381.826 367.021 386.551 370.007 388.913 366.889C390.422 364.832 386.157 371.201 386.879 373.722C387.601 376.244 381.826 367.021 381.826 367.021Z" fill="black"/>
<path opacity="0.07" d="M390.881 391.039L396.853 402.981L395.475 430.25L410.961 476.162C410.961 476.162 414.177 478.484 405.121 477.489C396.065 476.494 390.225 476.162 387.338 476.162C384.451 476.162 377.626 473.243 387.994 463.092C392.194 458.978 391.209 455.86 388.322 445.112C385.435 434.363 394.491 436.287 388.322 427.397C382.154 418.507 397.05 406.1 390.881 391.039Z" fill="black"/>
<g clip-path="url(#clip3)">
<path d="M547.647 410.32C547.289 410.32 547.011 410.601 547.011 410.961C547.011 412.723 547.408 417.327 551.107 417.327C555.482 417.327 776.928 417.207 790.292 417.167C790.769 417.167 791.524 416.326 791.962 415.766C792.598 415.005 793.473 413.844 793.99 411.281C794.11 410.721 793.752 410.16 793.195 410.04C793.115 410.04 793.036 410 792.996 410L547.647 410.32Z" fill="url(#paint14_linear)"/>
<path d="M563.595 417.287C563.595 417.287 563.197 422.092 567.174 422.092C571.032 422.092 765.593 421.692 777.326 421.652C777.723 421.652 778.161 421.492 778.479 421.251C779.195 420.691 780.348 419.45 780.786 417.047L563.595 417.287Z" fill="url(#paint15_linear)"/>
<path d="M741.571 421.572H743.798L767.423 567.56L765.553 567.68L741.571 421.572Z" fill="url(#paint16_linear)"/>
<path d="M614.383 421.892H611.638L582.725 567.84L584.992 568L614.383 421.892Z" fill="url(#paint17_linear)"/>
<path d="M631.206 421.892H628.502L599.588 557.229L601.855 557.349L631.206 421.892Z" fill="url(#paint18_linear)"/>
<path d="M722.521 421.291H725.106L752.548 556.588L750.401 556.709L722.521 421.291Z" fill="url(#paint19_linear)"/>
</g>
<g clip-path="url(#clip4)">
<path d="M203.255 115.596C203.255 115.596 206.963 95.2507 187.409 84.3594C167.855 73.468 166.936 73.5958 163.069 72.3502C160.851 71.5836 158.569 73.1806 161.136 76.4384C163.703 79.6962 162.245 80.5266 167.379 81.9639C172.514 83.4012 173.306 89.7252 175.873 91.2902C178.44 92.8553 180.69 93.2705 188.55 96.688C195.681 99.7861 201.766 108.538 201.766 111.636C201.766 114.734 208.738 115.756 208.738 115.756L203.255 115.596Z" fill="url(#paint20_linear)"/>
<path d="M202.558 112.754C202.558 112.754 207.534 94.037 190.42 83.9122C173.306 73.7874 167.316 73.9152 163.925 72.7015C161.992 71.9988 167.316 74.4262 169.534 77.4285C171.753 80.4308 171.214 79.7601 175.239 81.9959C179.898 84.5829 181.831 87.1062 184.557 87.6172C188.518 88.3837 187.346 92.5359 194.223 95.6659C200.435 98.5085 201.227 106.11 201.227 108.985C201.227 111.859 207.312 112.817 207.312 112.817L202.558 112.754Z" fill="url(#paint21_linear)"/>
<path d="M219.799 110.007L221.732 108.154C222.651 107.292 223.792 106.653 225.028 106.334C231.081 104.737 250.097 98.7321 257.988 84.2316C258.051 84.1038 257.988 83.9441 257.861 83.8802H257.83C257.798 83.8802 257.766 83.8483 257.735 83.8483C255.104 83.6567 241.571 83.4331 223.475 98.9876C223.158 99.2431 222.841 99.5625 222.588 99.8819C222.144 100.521 221.383 101.607 221.035 102.182C220.559 103.012 221.51 104.417 220.242 105.663C218.975 106.909 216.249 110.007 216.249 110.007L218.467 111.668L219.799 110.007Z" fill="url(#paint22_linear)"/>
<path d="M209.499 108.793C209.499 108.793 214.696 61.9694 200.53 47.2453C187.472 33.703 187.282 46.1593 187.314 48.2673C187.314 48.459 187.377 48.6187 187.441 48.7784C190.515 54.5594 191.592 61.2347 190.483 67.6865C189.152 74.4577 198.755 73.5634 199.579 80.2387C200.403 86.914 203.762 97.1985 203.414 101.926C203.065 106.653 203.033 111.252 203.033 111.252L208.263 111.412L209.499 108.793Z" fill="url(#paint23_linear)"/>
<path d="M209.435 108.953C209.467 108.857 209.499 108.729 209.53 108.633C209.847 105.567 214.221 61.4588 200.53 47.2457C187.567 33.7673 187.377 45.9682 187.441 48.172C187.472 48.4275 187.599 48.683 187.726 48.9066C188.677 50.3119 192.955 56.4443 196.758 55.7416C207.248 53.8572 197.994 66.5691 203.699 73.3722C208.263 78.738 206.741 97.2629 206.393 102.022C206.171 104.705 205.727 107.324 205.062 109.943C204.935 110.614 205.379 111.252 206.012 111.38C206.044 111.38 206.076 111.38 206.108 111.38C206.203 111.38 206.266 111.412 206.361 111.412H207.312C207.882 111.444 208.389 111.157 208.643 110.645L209.435 108.953Z" fill="url(#paint24_linear)"/>
<path d="M214.538 111.668C214.538 111.668 215.457 98.7002 222.968 90.7792C225.06 88.6073 227.722 87.1061 230.638 86.4354C232.888 85.9244 236.564 84.1038 239.765 78.0354C239.765 78.0354 245.818 69.4117 251.872 66.7927C257.925 64.1736 251.872 63.8542 251.872 63.8542C251.872 63.8542 234.568 67.1759 223.475 77.3966C222.778 78.0354 222.049 78.6422 221.257 79.1532C218.373 81.1335 210.418 88.6073 210.766 110.422L214.538 111.668Z" fill="url(#paint25_linear)"/>
<path d="M229.56 110.614C229.56 110.614 229.814 109.049 227.754 109.08C225.947 109.144 195.396 108.921 195.396 108.921C195.396 108.921 193.97 108.921 194.065 110.007C194.16 111.093 198.787 136.74 199.23 137.283C199.421 137.602 199.738 137.858 200.118 137.954C200.688 138.113 222.144 137.986 222.144 137.986C222.651 137.922 223.032 137.507 223.063 136.996C223.032 137.027 229.624 110.933 229.56 110.614Z" fill="url(#paint26_linear)"/>
</g>
<rect x="150.5" y="7.5" width="115" height="167" stroke="#8F2020" stroke-opacity="0.37" stroke-width="15"/>
<g clip-path="url(#clip5)">
<path d="M741.709 312.942L756.345 311.864L759.355 349.972H745.969L741.709 312.942Z" fill="white"/>
<path d="M749.934 319.423L743.885 319.898L743.956 320.802L750.006 320.327L749.934 319.423Z" fill="url(#paint27_linear)"/>
<path d="M748.246 322.246L744.336 322.553L744.408 323.457L748.317 323.15L748.246 322.246Z" fill="url(#paint28_linear)"/>
<path d="M748.447 324.748L744.538 325.055L744.609 325.96L748.519 325.652L748.447 324.748Z" fill="url(#paint29_linear)"/>
<path d="M751.264 330.225L745.215 330.7L745.286 331.604L751.336 331.129L751.264 330.225Z" fill="url(#paint30_linear)"/>
<path d="M748.613 327.51L744.704 327.817L744.775 328.721L748.685 328.414L748.613 327.51Z" fill="url(#paint31_linear)"/>
<path d="M749.529 333.186L745.62 333.493L745.691 334.398L749.601 334.09L749.529 333.186Z" fill="url(#paint32_linear)"/>
<path d="M749.796 336.262L745.887 336.569L745.959 337.473L749.868 337.166L749.796 336.262Z" fill="url(#paint33_linear)"/>
<path d="M752.338 341.655L746.289 342.13L746.361 343.035L752.41 342.56L752.338 341.655Z" fill="url(#paint34_linear)"/>
<path d="M750.104 339.009L746.194 339.316L746.266 340.22L750.175 339.913L750.104 339.009Z" fill="url(#paint35_linear)"/>
<path d="M750.679 346.872L746.77 347.179L746.841 348.083L750.75 347.776L750.679 346.872Z" fill="url(#paint36_linear)"/>
<path d="M750.679 349.368L746.77 349.675L746.842 350.579L750.751 350.272L750.679 349.368Z" fill="url(#paint37_linear)"/>
<path d="M750.512 344.2L746.603 344.507L746.675 345.412L750.584 345.105L750.512 344.2Z" fill="url(#paint38_linear)"/>
<path d="M732.886 349.968H770.715C771.211 349.968 771.701 350.078 772.15 350.289C772.598 350.5 772.994 350.808 773.31 351.189C773.625 351.571 773.851 352.017 773.973 352.496C774.095 352.975 774.108 353.475 774.013 353.959L762.694 410.293C762.542 411.049 762.133 411.73 761.535 412.22C760.938 412.71 760.188 412.979 759.414 412.982H743.214C742.427 412.983 741.665 412.709 741.06 412.207C740.455 411.706 740.047 411.009 739.905 410.239L729.573 353.916C729.484 353.433 729.503 352.936 729.629 352.462C729.754 351.987 729.983 351.545 730.3 351.168C730.616 350.792 731.011 350.489 731.458 350.281C731.905 350.074 732.393 349.967 732.886 349.968Z" fill="url(#paint39_linear)"/>
<path opacity="0.1" d="M759.151 412.996H744.632C744.632 412.996 756.072 410.162 758.313 394.995C760.554 379.828 772.056 356.26 774.075 353.266C774.017 353.557 774.046 353.818 773.988 354.108C771.725 365.328 769.691 374.279 769.403 376.605C768.641 382.807 765.635 391.192 762.989 408.272C762.989 408.374 762.945 408.519 762.938 408.696C762.77 412.071 760.97 412.996 759.151 412.996Z" fill="black"/>
<path d="M726.001 317.641L735.925 349.972H743.808L733.207 314.934L726.001 317.641Z" fill="url(#paint40_linear)"/>
<path d="M726.001 306.882V317.641L733.207 314.934L727.682 306.084L726.001 306.882Z" fill="white"/>
<path d="M726.001 306.882L727.682 306.084L726.001 304.172V306.882Z" fill="url(#paint41_linear)"/>
<path d="M765.059 349.972L774.075 320.112L765.059 318.45L760.635 349.972H765.059Z" fill="url(#paint42_linear)"/>
<path d="M765.059 318.45L766.324 312.946L774.815 314.535L774.075 320.112" fill="white"/>
<path d="M768.7 291C768.7 291 771.561 294.81 767.355 299.665C763.149 304.52 762.96 305.572 766.324 312.942L774.815 314.535C774.815 314.535 781.539 312.967 781.973 306.392C782.45 299.447 776.437 293.678 768.7 291Z" fill="url(#paint43_linear)"/>
<path d="M780.701 300.681C780.701 300.681 780.701 314.154 770.38 313.726L780.701 300.681Z" fill="url(#paint44_linear)"/>
</g>
<g clip-path="url(#clip6)">
<path d="M664.099 384.868H630.607C630.297 384.868 630.045 385.12 630.045 385.43C630.045 385.74 630.297 385.992 630.607 385.992H664.099C664.409 385.992 664.661 385.74 664.661 385.43C664.661 385.12 664.409 384.868 664.099 384.868Z" fill="#F4F4F4"/>
<path d="M664.099 386.89H630.607C630.297 386.89 630.045 387.142 630.045 387.452C630.045 387.762 630.297 388.013 630.607 388.013H664.099C664.409 388.013 664.661 387.762 664.661 387.452C664.661 387.142 664.409 386.89 664.099 386.89Z" fill="#F4F4F4"/>
<path d="M664.099 388.912H630.607C630.297 388.912 630.045 389.163 630.045 389.473C630.045 389.784 630.297 390.035 630.607 390.035H664.099C664.409 390.035 664.661 389.784 664.661 389.473C664.661 389.163 664.409 388.912 664.099 388.912Z" fill="#F4F4F4"/>
<path d="M668.819 395.426H638.249C637.939 395.426 637.688 395.678 637.688 395.988C637.688 396.298 637.939 396.549 638.249 396.549H668.819C669.13 396.549 669.381 396.298 669.381 395.988C669.381 395.678 669.13 395.426 668.819 395.426Z" fill="#F4F4F4"/>
<path d="M668.819 397.448H638.249C637.939 397.448 637.688 397.699 637.688 398.009C637.688 398.32 637.939 398.571 638.249 398.571H668.819C669.13 398.571 669.381 398.32 669.381 398.009C669.381 397.699 669.13 397.448 668.819 397.448Z" fill="#F4F4F4"/>
<path d="M668.819 399.47H638.249C637.939 399.47 637.688 399.721 637.688 400.031C637.688 400.341 637.939 400.593 638.249 400.593H668.819C669.13 400.593 669.381 400.341 669.381 400.031C669.381 399.721 669.13 399.47 668.819 399.47Z" fill="#F4F4F4"/>
<path d="M585.613 382.714C585.613 382.714 581.043 383.071 581.043 387.564C581.043 392.057 585.764 392.281 585.764 392.281L665.335 392.506V391.158H629.82C629.82 391.158 628.696 391.383 628.921 389.586V384.868C628.909 384.599 629.004 384.337 629.186 384.138C629.368 383.939 629.621 383.82 629.89 383.808H629.991C631.585 383.79 664.886 384.195 664.886 384.195V382.397L585.613 382.714Z" fill="url(#paint45_linear)"/>
<path d="M588.967 392.299C588.967 392.299 584.021 392.823 584.021 397.809C584.021 402.078 587.488 403.055 588.479 403.248C588.627 403.276 588.778 403.291 588.928 403.291L670.152 403.385L670.082 401.718L638.586 401.628C638.586 401.628 636.563 401.604 636.788 399.629V395.408C636.788 395.408 636.563 393.854 638.362 393.854C639.935 393.854 669.606 394.184 669.606 394.184V392.057L588.967 392.299Z" fill="url(#paint46_linear)"/>
<path d="M634.833 384.868H637.53C638.303 385.408 638.86 386.204 639.103 387.115C639.553 388.687 639.103 389.136 640.002 390.933C640.533 391.991 641.156 392.692 641.576 393.404C641.664 393.555 641.778 394.579 641.801 394.752L642.025 397.448L640.902 396.774L639.778 397.897C639.778 397.897 639.778 394.303 639.328 393.629C638.879 392.955 637.105 390.484 637.305 388.687C637.53 386.665 636.856 385.992 634.833 384.868Z" fill="#EF5455"/>
<path d="M684.742 335.449H678.597C677.107 335.449 675.899 336.656 675.899 338.145V402.165C675.899 403.654 677.107 404.861 678.597 404.861H684.742C686.232 404.861 687.44 403.654 687.44 402.165V338.145C687.44 336.656 686.232 335.449 684.742 335.449Z" fill="url(#paint47_linear)"/>
<path d="M556.843 335H550.697C549.208 335 548 336.207 548 337.696V401.716C548 403.205 549.208 404.411 550.697 404.411H556.843C558.332 404.411 559.54 403.205 559.54 401.716V337.696C559.54 336.207 558.332 335 556.843 335Z" fill="url(#paint48_linear)"/>
<path d="M704.593 360.446L700.174 362.996C698.884 363.74 698.442 365.389 699.187 366.678L720.55 403.655C721.295 404.945 722.944 405.387 724.235 404.642L728.653 402.093C729.944 401.348 730.386 399.7 729.641 398.41L708.278 361.433C707.533 360.143 705.883 359.702 704.593 360.446Z" fill="url(#paint49_linear)"/>
<path d="M696.129 345.333H689.984C688.494 345.333 687.287 346.54 687.287 348.029V402.165C687.287 403.654 688.494 404.861 689.984 404.861H696.129C697.619 404.861 698.827 403.654 698.827 402.165V348.029C698.827 346.54 697.619 345.333 696.129 345.333Z" fill="url(#paint50_linear)"/>
<path d="M568.456 337.471H562.31C560.82 337.471 559.613 338.678 559.613 340.167V401.716C559.613 403.205 560.82 404.411 562.31 404.411H568.456C569.945 404.411 571.153 403.205 571.153 401.716V340.167C571.153 338.678 569.945 337.471 568.456 337.471Z" fill="url(#paint51_linear)"/>
</g>
<defs>
<linearGradient id="paint0_linear" x1="383.18" y1="23.6252" x2="338.702" y2="23.6252" gradientUnits="userSpaceOnUse">
<stop stop-color="#4B45BD"/>
<stop offset="1" stop-color="#58CAEA"/>
</linearGradient>
<linearGradient id="paint1_linear" x1="395.003" y1="139.608" x2="554.997" y2="139.608" gradientUnits="userSpaceOnUse">
<stop stop-color="#F87B58"/>
<stop offset="0.41" stop-color="#F89453"/>
<stop offset="0.71" stop-color="#F8C548"/>
<stop offset="1" stop-color="#F89C51"/>
</linearGradient>
<linearGradient id="paint2_linear" x1="454.829" y1="314.343" x2="525.19" y2="314.343" gradientUnits="userSpaceOnUse">
<stop stop-color="#4B45BD"/>
<stop offset="1" stop-color="#58CAEA"/>
</linearGradient>
<linearGradient id="paint3_linear" x1="351.97" y1="119.415" x2="432.645" y2="63.5339" gradientUnits="userSpaceOnUse">
<stop stop-color="#5B4BB6"/>
<stop offset="1" stop-color="#2B3252"/>
</linearGradient>
<linearGradient id="paint4_linear" x1="112.855" y1="373.745" x2="246.885" y2="491.343" gradientUnits="userSpaceOnUse">
<stop stop-color="#2B3252"/>
<stop offset="1" stop-color="#7A5BF5"/>
</linearGradient>
<linearGradient id="paint5_linear" x1="243.078" y1="312.726" x2="149.699" y2="485.453" gradientUnits="userSpaceOnUse">
<stop stop-color="#2B3252"/>
<stop offset="1" stop-color="#2B3252"/>
</linearGradient>
<linearGradient id="paint6_linear" x1="110.656" y1="411.765" x2="315.606" y2="495.397" gradientUnits="userSpaceOnUse">
<stop stop-color="#2B3252"/>
<stop offset="1" stop-color="#343F6F"/>
</linearGradient>
<linearGradient id="paint7_linear" x1="248.916" y1="496.973" x2="69.6875" y2="496.973" gradientUnits="userSpaceOnUse">
<stop stop-color="#4B45BD"/>
<stop offset="1" stop-color="#58CAEA"/>
</linearGradient>
<linearGradient id="paint8_linear" x1="130.331" y1="370.266" x2="230.308" y2="370.266" gradientUnits="userSpaceOnUse">
<stop stop-color="#F87B58"/>
<stop offset="0.5" stop-color="#F8C548"/>
<stop offset="1" stop-color="#F89C51"/>
</linearGradient>
<linearGradient id="paint9_linear" x1="87.9072" y1="416.871" x2="240.026" y2="416.871" gradientUnits="userSpaceOnUse">
<stop stop-color="#E5A4ED"/>
<stop offset="1" stop-color="#7A5BF5"/>
</linearGradient>
<linearGradient id="paint10_linear" x1="118.384" y1="352.293" x2="204.08" y2="352.293" gradientUnits="userSpaceOnUse">
<stop stop-color="#4B45BD"/>
<stop offset="1" stop-color="#58CAEA"/>
</linearGradient>
<linearGradient id="paint11_linear" x1="308.003" y1="443.938" x2="416.052" y2="443.938" gradientUnits="userSpaceOnUse">
<stop offset="0.02" stop-color="#F87B58"/>
<stop offset="0.51" stop-color="#F8C548"/>
<stop offset="1" stop-color="#F89C51"/>
</linearGradient>
<linearGradient id="paint12_linear" x1="352.69" y1="426.438" x2="411.108" y2="426.438" gradientUnits="userSpaceOnUse">
<stop stop-color="#4E4499"/>
<stop offset="1" stop-color="#2B3252"/>
</linearGradient>
<linearGradient id="paint13_linear" x1="412.285" y1="350.152" x2="359.84" y2="350.152" gradientUnits="userSpaceOnUse">
<stop stop-color="#4B45BD"/>
<stop offset="1" stop-color="#58CAEA"/>
</linearGradient>
<linearGradient id="paint14_linear" x1="547.007" y1="413.664" x2="793.998" y2="413.664" gradientUnits="userSpaceOnUse">
<stop stop-color="#E5A4ED"/>
<stop offset="1" stop-color="#7A5BF5"/>
</linearGradient>
<linearGradient id="paint15_linear" x1="563.564" y1="419.578" x2="780.734" y2="419.578" gradientUnits="userSpaceOnUse">
<stop stop-color="#E5A4ED"/>
<stop offset="1" stop-color="#7A5BF5"/>
</linearGradient>
<linearGradient id="paint16_linear" x1="741.559" y1="494.624" x2="767.411" y2="494.624" gradientUnits="userSpaceOnUse">
<stop stop-color="#E5A4ED"/>
<stop offset="1" stop-color="#7A5BF5"/>
</linearGradient>
<linearGradient id="paint17_linear" x1="615.645" y1="494.942" x2="584.102" y2="494.942" gradientUnits="userSpaceOnUse">
<stop stop-color="#E5A4ED"/>
<stop offset="1" stop-color="#7A5BF5"/>
</linearGradient>
<linearGradient id="paint18_linear" x1="632.439" y1="489.621" x2="600.9" y2="489.621" gradientUnits="userSpaceOnUse">
<stop stop-color="#E5A4ED"/>
<stop offset="1" stop-color="#7A5BF5"/>
</linearGradient>
<linearGradient id="paint19_linear" x1="632.439" y1="489.621" x2="600.9" y2="489.621" gradientUnits="userSpaceOnUse">
<stop stop-color="#E5A4ED"/>
<stop offset="1" stop-color="#7A5BF5"/>
</linearGradient>
<linearGradient id="paint20_linear" x1="159.999" y1="93.9283" x2="208.732" y2="93.9283" gradientUnits="userSpaceOnUse">
<stop stop-color="#93FD93"/>
<stop offset="0.51" stop-color="#21C2C1"/>
<stop offset="1" stop-color="#84F599"/>
</linearGradient>
<linearGradient id="paint21_linear" x1="178.258" y1="78.4492" x2="206.209" y2="112.453" gradientUnits="userSpaceOnUse">
<stop stop-color="#93FD93"/>
<stop offset="0.51" stop-color="#21C2C1"/>
<stop offset="1" stop-color="#84F599"/>
</linearGradient>
<linearGradient id="paint22_linear" x1="210.159" y1="117.15" x2="248.452" y2="87.7501" gradientUnits="userSpaceOnUse">
<stop stop-color="#93FD93"/>
<stop offset="0.51" stop-color="#21C2C1"/>
<stop offset="1" stop-color="#84F599"/>
</linearGradient>
<linearGradient id="paint23_linear" x1="219.727" y1="102.055" x2="186.714" y2="60.5849" gradientUnits="userSpaceOnUse">
<stop stop-color="#93FD93"/>
<stop offset="0.51" stop-color="#21C2C1"/>
<stop offset="1" stop-color="#84F599"/>
</linearGradient>
<linearGradient id="paint24_linear" x1="187.437" y1="76.2055" x2="210.445" y2="76.2055" gradientUnits="userSpaceOnUse">
<stop stop-color="#93FD93"/>
<stop offset="0.51" stop-color="#21C2C1"/>
<stop offset="1" stop-color="#84F599"/>
</linearGradient>
<linearGradient id="paint25_linear" x1="208.458" y1="114.082" x2="233.644" y2="77.9398" gradientUnits="userSpaceOnUse">
<stop stop-color="#93FD93"/>
<stop offset="0.51" stop-color="#21C2C1"/>
<stop offset="1" stop-color="#84F599"/>
</linearGradient>
<linearGradient id="paint26_linear" x1="194.102" y1="123.475" x2="229.586" y2="123.475" gradientUnits="userSpaceOnUse">
<stop stop-color="#5B4BB6"/>
<stop offset="1" stop-color="#2B3252"/>
</linearGradient>
<linearGradient id="paint27_linear" x1="743.884" y1="320.115" x2="750.003" y2="320.115" gradientUnits="userSpaceOnUse">
<stop stop-color="#484848"/>
<stop offset="1" stop-color="#7A5BF5"/>
</linearGradient>
<linearGradient id="paint28_linear" x1="1679.92" y1="694.339" x2="1722.27" y2="693.115" gradientUnits="userSpaceOnUse">
<stop stop-color="#342F34"/>
<stop offset="1" stop-color="#7A5BF5"/>
</linearGradient>
<linearGradient id="paint29_linear" x1="1681.69" y1="703.183" x2="1724.02" y2="701.96" gradientUnits="userSpaceOnUse">
<stop stop-color="#0B0A0B"/>
<stop offset="1" stop-color="#7A5BF5"/>
</linearGradient>
<linearGradient id="paint30_linear" x1="2728.44" y1="681.744" x2="2830.32" y2="681.744" gradientUnits="userSpaceOnUse">
<stop stop-color="#5C3A60"/>
<stop offset="1" stop-color="#7A5BF5"/>
</linearGradient>
<linearGradient id="paint31_linear" x1="1683.06" y1="712.899" x2="1725.41" y2="711.676" gradientUnits="userSpaceOnUse">
<stop stop-color="#A07CA5"/>
<stop offset="1" stop-color="#7A5BF5"/>
</linearGradient>
<linearGradient id="paint32_linear" x1="1692.31" y1="733.13" x2="1734.67" y2="731.906" gradientUnits="userSpaceOnUse">
<stop stop-color="#E5A4ED"/>
<stop offset="1" stop-color="#7A5BF5"/>
</linearGradient>
<linearGradient id="paint33_linear" x1="1694.74" y1="744.002" x2="1737.07" y2="742.78" gradientUnits="userSpaceOnUse">
<stop stop-color="#E5A4ED"/>
<stop offset="1" stop-color="#7A5BF5"/>
</linearGradient>
<linearGradient id="paint34_linear" x1="2747.42" y1="721.752" x2="2849.3" y2="721.752" gradientUnits="userSpaceOnUse">
<stop stop-color="#E5A4ED"/>
<stop offset="1" stop-color="#7A5BF5"/>
</linearGradient>
<linearGradient id="paint35_linear" x1="1697.69" y1="753.736" x2="1740.02" y2="752.513" gradientUnits="userSpaceOnUse">
<stop stop-color="#E5A4ED"/>
<stop offset="1" stop-color="#7A5BF5"/>
</linearGradient>
<linearGradient id="paint36_linear" x1="1702.64" y1="781.46" x2="1745" y2="780.236" gradientUnits="userSpaceOnUse">
<stop stop-color="#E5A4ED"/>
<stop offset="1" stop-color="#7A5BF5"/>
</linearGradient>
<linearGradient id="paint37_linear" x1="1702.16" y1="790.187" x2="1744.49" y2="788.964" gradientUnits="userSpaceOnUse">
<stop stop-color="#E5A4ED"/>
<stop offset="1" stop-color="#7A5BF5"/>
</linearGradient>
<linearGradient id="paint38_linear" x1="1701.31" y1="772.057" x2="1743.66" y2="770.833" gradientUnits="userSpaceOnUse">
<stop stop-color="#E5A4ED"/>
<stop offset="1" stop-color="#7A5BF5"/>
</linearGradient>
<linearGradient id="paint39_linear" x1="13373.2" y1="33533.1" x2="18821.2" y2="33533.1" gradientUnits="userSpaceOnUse">
<stop stop-color="#5B4BB6"/>
<stop offset="1" stop-color="#2B3252"/>
</linearGradient>
<linearGradient id="paint40_linear" x1="726.001" y1="4317.62" x2="1596.04" y2="4317.62" gradientUnits="userSpaceOnUse">
<stop stop-color="#E5A4ED"/>
<stop offset="1" stop-color="#7A5BF5"/>
</linearGradient>
<linearGradient id="paint41_linear" x1="726.001" y1="412.675" x2="733.747" y2="412.675" gradientUnits="userSpaceOnUse">
<stop stop-color="#E5A4ED"/>
<stop offset="1" stop-color="#7A5BF5"/>
</linearGradient>
<linearGradient id="paint42_linear" x1="2063.04" y1="4066.67" x2="2511.14" y2="4074.82" gradientUnits="userSpaceOnUse">
<stop stop-color="#E5A4ED"/>
<stop offset="1" stop-color="#7A5BF5"/>
</linearGradient>
<linearGradient id="paint43_linear" x1="7580.42" y1="7579.07" x2="8471.01" y2="7579.07" gradientUnits="userSpaceOnUse">
<stop stop-color="#E5A4ED"/>
<stop offset="1" stop-color="#7A5BF5"/>
</linearGradient>
<linearGradient id="paint44_linear" x1="771.5" y1="306.113" x2="780.021" y2="307.237" gradientUnits="userSpaceOnUse">
<stop stop-color="white"/>
<stop offset="1" stop-color="white" stop-opacity="0"/>
</linearGradient>
<linearGradient id="paint45_linear" x1="581.043" y1="387.452" x2="665.335" y2="387.452" gradientUnits="userSpaceOnUse">
<stop stop-color="#E5A4ED"/>
<stop offset="1" stop-color="#7A5BF5"/>
</linearGradient>
<linearGradient id="paint46_linear" x1="584.028" y1="397.72" x2="670.159" y2="397.72" gradientUnits="userSpaceOnUse">
<stop stop-color="#F71F68"/>
<stop offset="1" stop-color="#F9C448"/>
</linearGradient>
<linearGradient id="paint47_linear" x1="6632.55" y1="17996.5" x2="12547.9" y2="16769.4" gradientUnits="userSpaceOnUse">
<stop stop-color="#E5A4ED"/>
<stop offset="1" stop-color="#7A5BF5"/>
</linearGradient>
<linearGradient id="paint48_linear" x1="-61.6634" y1="17857.2" x2="5853.72" y2="16630.1" gradientUnits="userSpaceOnUse">
<stop stop-color="#E5A4ED"/>
<stop offset="1" stop-color="#7A5BF5"/>
</linearGradient>
<linearGradient id="paint49_linear" x1="24541.8" y1="15202.1" x2="27545.1" y2="11804.5" gradientUnits="userSpaceOnUse">
<stop stop-color="#E5A4ED"/>
<stop offset="1" stop-color="#7A5BF5"/>
</linearGradient>
<linearGradient id="paint50_linear" x1="7346.63" y1="16041.6" x2="12415.9" y2="14815.4" gradientUnits="userSpaceOnUse">
<stop stop-color="#EF5455"/>
<stop offset="1" stop-color="#EF5455"/>
</linearGradient>
<linearGradient id="paint51_linear" x1="575.653" y1="17390.6" x2="6280.62" y2="16163.5" gradientUnits="userSpaceOnUse">
<stop stop-color="#F71F68"/>
<stop offset="1" stop-color="#F9C448"/>
</linearGradient>
<clipPath id="clip0">
<rect width="160" height="349" fill="white" transform="translate(395 72)"/>
</clipPath>
<clipPath id="clip1">
<rect width="217" height="274" fill="white" transform="translate(91 350)"/>
</clipPath>
<clipPath id="clip2">
<rect width="249" height="383" fill="white" transform="translate(0 285)"/>
</clipPath>
<clipPath id="clip3">
<rect width="247" height="158" fill="white" transform="translate(547 410)"/>
</clipPath>
<clipPath id="clip4">
<rect width="98" height="97" fill="white" transform="translate(160 41)"/>
</clipPath>
<clipPath id="clip5">
<rect width="56" height="122" fill="white" transform="translate(726 291)"/>
</clipPath>
<clipPath id="clip6">
<rect width="182" height="70" fill="white" transform="translate(548 335)"/>
</clipPath>
</defs>
</svg>
