<svg width="604" height="517" viewBox="0 0 604 517" fill="none" xmlns="http://www.w3.org/2000/svg">
<g clip-path="url(#clip0)">
<path opacity="0.18" d="M46.7944 410.201C46.7944 410.201 -10.1734 381.955 1.58149 309.04C13.3363 236.125 128.637 172.546 173.902 124.861C219.167 77.1757 266.065 -4.79703 387.33 0.216059C508.595 5.22915 506.962 86.5191 563.843 116.148C620.724 145.777 567.188 248.736 572.21 273.386C577.232 298.037 641.425 372.525 564.154 423.969C486.884 475.414 46.7944 410.201 46.7944 410.201Z" fill="#344388"/>
<path d="M1.58154 482.216V503.825C1.58154 503.825 4.3301 517.351 29.5339 516.608C54.7376 515.865 587.612 516.608 587.612 516.608C587.612 516.608 601.251 514.387 603.974 503.271V482.216H1.58154Z" fill="#344388"/>
<path d="M1.58154 482.216V503.825C1.58154 503.825 4.3301 517.351 29.5339 516.608C54.7376 515.865 587.612 516.608 587.612 516.608C587.612 516.608 601.251 514.387 603.974 503.271V482.216H1.58154Z" fill="url(#paint0_linear)"/>
<path d="M527.412 374.366H70.6416C59.8203 374.366 51.0474 365.601 51.0474 355.627V76.1904C51.0474 64.522 59.8203 55.7491 70.6416 55.7491H527.412C532.603 55.7582 537.578 57.8266 541.245 61.5003C544.912 65.1739 546.972 70.1526 546.972 75.3433V354.78C546.972 359.97 544.912 364.948 541.245 368.62C537.577 372.292 532.602 374.359 527.412 374.366Z" fill="#344388"/>
<path d="M517.049 67.2705H80.8061C70.734 67.2705 62.5688 75.4356 62.5688 85.5078V338.799C62.5688 348.871 70.734 357.036 80.8061 357.036H517.049C527.121 357.036 535.286 348.871 535.286 338.799V85.5078C535.286 75.4356 527.121 67.2705 517.049 67.2705Z" fill="#344388"/>
<path d="M518.872 67.2705H82.6294C72.5572 67.2705 64.3921 75.4356 64.3921 85.5078V338.799C64.3921 348.871 72.5572 357.036 82.6294 357.036H518.872C528.944 357.036 537.109 348.871 537.109 338.799V85.5078C537.109 75.4356 528.944 67.2705 518.872 67.2705Z" fill="url(#paint1_linear)"/>
<path d="M253.222 191.82C253.222 191.82 247.457 184.637 242.755 190.567C238.053 196.496 245.045 210.567 256.134 210.818C267.224 211.069 253.222 191.82 253.222 191.82Z" fill="url(#paint2_linear)"/>
<path d="M222.624 90.6419H92.9233V193.289H222.624V90.6419Z" fill="url(#paint3_linear)"/>
<path d="M179.201 123.167C179.322 123.757 179.295 124.369 179.123 124.947C178.897 126.003 178.426 126.992 177.749 127.834C177.404 128.249 176.976 128.587 176.492 128.826C176.008 129.064 175.479 129.197 174.94 129.217C174.865 129.225 174.79 129.217 174.719 129.191C174.649 129.166 174.585 129.124 174.533 129.07C174.477 128.986 174.447 128.886 174.447 128.785C174.378 127.177 174.3 124.74 175.311 123.391C176.245 122.233 178.648 121.144 179.201 123.167Z" fill="url(#paint4_linear)"/>
<path d="M138.145 123.08C137.747 123.316 137.419 123.655 137.195 124.061C136.972 124.466 136.861 124.925 136.875 125.388C136.839 126.352 137.146 127.298 137.739 128.059C138.268 128.667 138.892 129.183 139.589 129.588C140.412 130.217 141.394 130.603 142.424 130.703C142.567 130.719 142.711 130.701 142.846 130.652C142.981 130.602 143.103 130.522 143.202 130.418C143.321 130.24 143.379 130.027 143.366 129.813C143.47 127.324 142.19 121.118 138.145 123.08Z" fill="url(#paint5_linear)"/>
<path d="M141.827 127.436C141.499 127.487 141.164 127.445 140.858 127.315C140.553 127.186 140.29 126.973 140.099 126.702C139.459 125.785 139.234 124.67 138.37 125.163C137.506 125.656 138.068 127.531 138.802 128.56C139.537 129.588 141.966 130.366 142.381 129.666C142.795 128.966 141.827 127.436 141.827 127.436Z" fill="url(#paint6_linear)"/>
<path d="M174.542 126.313C174.863 126.361 175.192 126.318 175.49 126.188C175.788 126.058 176.044 125.847 176.227 125.578C176.876 124.662 177.092 123.547 177.956 124.048C178.82 124.549 178.267 126.408 177.524 127.436C176.78 128.465 174.369 129.251 173.954 128.543C173.539 127.834 174.542 126.313 174.542 126.313Z" fill="url(#paint7_linear)"/>
<path d="M177.783 357.036H179.356C178.449 358.799 177.783 357.036 177.783 357.036Z" stroke="#6C62FF" stroke-width="0.639602" stroke-miterlimit="10"/>
<path d="M332.316 256.705C332.316 256.705 330.648 265.348 340.761 272.721C338.306 276.273 331.685 283.093 320.415 286.23C315.406 287.589 310.208 288.109 305.029 287.769C296.179 287.268 288.383 283.49 282.151 279.039L281.174 278.322C276.346 274.682 271.991 270.455 268.209 265.737C275.66 261.018 281.891 254.769 275.349 249.237C275.31 249.197 275.266 249.163 275.219 249.133C275.157 249.074 275.09 249.019 275.02 248.969L274.899 248.866C250.006 229.617 251.969 163.297 251.969 163.297C277.207 67.357 339.326 110.642 352.723 115.759C366.12 120.876 375.68 152.58 369.638 187.688C362.611 228.32 332.316 256.705 332.316 256.705Z" fill="url(#paint8_linear)"/>
<path d="M443.019 357.036H179.399C180.264 355.394 181.318 350.675 182.269 338.548C186.496 284.45 253.515 273.127 253.515 273.127C256.846 271.795 260.104 270.286 263.274 268.607L273.594 280.707C276.498 284.104 284.138 286.688 284.138 286.688C323.586 305.946 340.812 282.998 345.203 275.409C360.061 283.084 397.711 294.891 418.412 310.544C441.143 327.701 443.019 357.036 443.019 357.036Z" fill="#344388"/>
<path d="M434.402 357.036L443.901 268.702H484.991L488.88 357.823L434.402 357.036Z" fill="#344388"/>
<path d="M436.856 334.244L434.41 357.036H179.356C180.22 355.394 181.275 350.675 182.226 338.548C186.495 284.45 253.515 273.127 253.515 273.127C256.846 271.795 260.103 270.286 263.273 268.607L273.593 280.707C276.498 284.104 284.138 286.688 284.138 286.688C323.586 305.946 340.812 282.998 345.203 275.409C360.061 283.084 397.711 294.891 418.411 310.544C426.461 316.761 432.806 324.914 436.856 334.244Z" fill="url(#paint9_linear)"/>
<path d="M488.88 357.823L434.411 357.036L436.857 334.244L443.901 268.702H484.991L488.88 357.823Z" fill="url(#paint10_linear)"/>
<path d="M511.301 200.697C510.635 202.555 506.746 208.864 503.219 215.053C500.168 220.421 497.411 225.684 497.29 227.871C497.039 232.556 490.825 253.153 483.953 259.428C479.718 263.3 481.654 268.693 481.654 268.693L472.864 268.978L446.07 269.843C446.07 269.843 448.248 265.729 445.119 264.06C441.99 262.392 414.003 228.295 414.003 228.295C414.003 228.295 416.035 218.294 428.075 224.967C440.115 231.639 442.111 237.007 445.102 236.445C448.092 235.883 448.36 189.918 448.36 189.918C448.36 189.918 448.991 168.907 454.566 165.052C460.141 161.197 459.156 178.985 459.156 178.985L462.838 203.099C462.838 203.099 471.87 164.801 474.593 163.072C477.315 161.344 482.674 162.813 481.343 170.186C481.032 171.915 479.226 190.973 479.226 190.973L477.739 203.471C477.739 203.471 491.897 172.779 494.481 171.785C497.065 170.791 501.145 172.018 499.909 177.213C498.673 182.407 492.45 209.098 492.26 209.936C492.778 209.323 504.913 194.724 507.817 193.281C510.722 191.837 512.537 197.239 511.301 200.697Z" fill="url(#paint11_linear)"/>
<path d="M346.387 273.127C346.387 273.127 341.599 294.813 316.378 296.118C277.094 298.158 261.675 266.688 261.675 266.688L266.351 263.326C266.351 263.326 266.982 264.251 268.183 265.746C272.98 271.718 286.809 286.74 305.029 287.821C325.86 289.013 337.338 277.708 340.761 272.764C341.042 272.363 341.301 271.948 341.539 271.52L346.387 273.127Z" fill="white"/>
<path d="M108.672 193.289C108.672 193.289 107.004 165.994 129.796 154.395C152.588 142.795 206.453 152.752 203.696 193.289H108.672Z" fill="#344388"/>
<path d="M148.387 135.233V143.279C148.388 145.105 147.742 146.872 146.563 148.266C145.384 149.66 143.749 150.592 141.948 150.894L136.295 151.836C136.295 151.836 144.437 169.572 161.482 164.879C178.526 160.186 179.278 155.458 179.278 155.458L175.225 154.049C173.536 153.461 172.072 152.364 171.033 150.908C169.995 149.453 169.433 147.712 169.425 145.924L169.382 135.233H148.387Z" fill="url(#paint12_linear)"/>
<path d="M140.739 117.937C140.739 117.937 140.159 129.545 147.065 138.975C154.55 149.2 164.922 151.076 171.854 138.975C173.86 135.518 177.559 116.952 176.064 110.53C174.568 104.108 149.866 85.819 140.739 117.937Z" fill="url(#paint13_linear)"/>
<path d="M137.471 108.793C137.993 108.475 138.463 108.079 138.863 107.617C139.211 106.933 139.374 106.171 139.338 105.405C139.727 100.219 144.308 96.2514 149.131 94.298C157.774 90.7802 168.501 92.2755 175.424 98.6197C177.931 100.901 180.109 103.806 183.358 104.782C184.025 104.883 184.655 105.151 185.191 105.56C186.237 106.58 185.459 108.395 184.37 109.381C184.105 109.582 183.892 109.842 183.747 110.141C183.428 111.005 184.56 111.731 185.476 112.025C184.649 113.148 183.61 114.097 182.416 114.817C183.021 114.878 183.22 115.751 182.909 116.269C182.531 116.746 182.057 117.138 181.517 117.419C180.005 118.491 179.244 120.297 178.276 121.879C177.308 123.46 175.787 124.999 173.955 124.887C175.066 120.666 174.589 116.185 172.615 112.293C164.179 114.566 155.328 111.852 146.884 109.545C146.26 109.292 145.563 109.292 144.939 109.545C143.859 110.167 144.204 111.783 144.697 112.924C143.634 112.924 143.107 114.212 142.891 115.258C142.579 116.822 142.399 118.409 142.355 120.003C142.355 120.954 143.046 124.109 142.605 124.783C141.741 126.105 140.479 124.005 139.719 122.994C137.281 119.718 133.279 112.172 137.471 108.793Z" fill="#3F3D56"/>
<path d="M70.6416 374.366L3.60449 475.094C2.42095 476.874 1.74228 478.941 1.64078 481.076C1.53927 483.211 2.01874 485.333 3.02809 487.217C4.03745 489.101 5.5389 490.676 7.37252 491.774C9.20614 492.872 11.3033 493.452 13.4405 493.453H592.168C594.356 493.454 596.502 492.848 598.366 491.702C600.23 490.555 601.739 488.914 602.725 486.96C603.711 485.006 604.135 482.817 603.949 480.636C603.764 478.456 602.977 476.37 601.675 474.61L527.43 374.348L70.6416 374.366Z" fill="#344388"/>
<path d="M70.6416 374.366L3.60449 475.094C2.42095 476.874 1.74228 478.941 1.64078 481.076C1.53927 483.211 2.01874 485.333 3.02809 487.217C4.03745 489.101 5.5389 490.676 7.37252 491.774C9.20614 492.872 11.3033 493.452 13.4405 493.453H592.168C594.356 493.454 596.502 492.848 598.366 491.702C600.23 490.555 601.739 488.914 602.725 486.96C603.711 485.006 604.135 482.817 603.949 480.636C603.764 478.456 602.977 476.37 601.675 474.61L527.43 374.348L70.6416 374.366Z" fill="url(#paint14_linear)"/>
<path d="M515.528 392.439H80.0366L84.0039 384.504H509.581L515.528 392.439Z" fill="url(#paint15_linear)"/>
<path d="M524.222 404.055H74.228L80.0363 392.439H515.527L524.222 404.055Z" fill="url(#paint16_linear)"/>
<path d="M533.41 416.337H68.0913L74.228 404.055H524.222L533.41 416.337Z" fill="url(#paint17_linear)"/>
<path d="M541.682 427.384H62.5688L68.0919 416.337H533.411L541.682 427.384Z" fill="url(#paint18_linear)"/>
<path d="M223.549 435.05H381.358L403.597 471.533H212.434L223.549 435.05Z" fill="url(#paint19_linear)"/>
<path d="M247.405 104.947C247.482 106.485 247.854 108.049 247.491 109.553C247.022 110.937 246.285 112.215 245.322 113.313C235.935 125.976 235.486 142.934 235.417 158.69C235.417 162.666 235.416 166.72 236.557 170.523C237.69 174.196 239.859 177.438 242.003 180.636C243.031 182.174 251.381 191.621 253.239 191.82C255.728 192.088 248.399 150.453 298.115 146.434C303.085 146.028 308.011 146.65 312.998 146.815C315.946 146.91 318.893 146.538 321.84 146.65C326.81 146.849 331.599 148.448 336.301 150.03C344.814 152.891 353.872 156.149 359.136 163.418L363.89 160.825L364.599 178.051L364.78 182.183L365.843 207.248L376.768 190.766C383.579 180.489 390.65 167.8 385.636 156.538C383.268 151.231 378.488 147.221 376.457 141.767C373.631 134.169 376.751 125.664 375.852 117.609C374.124 101.913 357.485 91.7742 341.781 90.0974C338.28 89.7257 334.736 89.648 331.279 88.9997C327.859 88.253 324.497 87.2623 321.218 86.0351C314.451 83.7187 306.646 81.7134 300.474 85.3263C298.063 86.7352 296.153 88.9219 293.56 90.0715C289.083 92.0854 283.923 90.5296 279.039 90.011C269.419 89.0256 246.722 91.1173 247.405 104.947Z" fill="#3F3D56"/>
<path d="M365.066 196.885C365.066 196.885 370.831 189.702 375.524 195.632C380.217 201.561 373.233 215.632 362.153 215.883C351.072 216.133 365.066 196.885 365.066 196.885Z" fill="url(#paint20_linear)"/>
<path d="M320.414 286.23C320.414 286.23 303.672 294.796 282.151 279.039L281.174 278.322C276.404 274.615 272.056 270.395 268.209 265.737C275.659 261.018 281.891 254.769 275.348 249.237C278.581 251.83 298.158 266.878 311.218 263.317C325.315 259.479 320.518 285.703 320.414 286.23Z" fill="url(#paint21_linear)"/>
<path d="M503.219 215.062C500.168 220.429 497.411 225.693 497.29 227.88C497.039 232.564 490.825 253.161 483.953 259.436C479.718 263.308 481.654 268.702 481.654 268.702L472.864 268.987L472 268.901C472 268.901 475.215 256.031 467.064 250.352C458.914 244.674 449.302 238.494 450.521 231.579C451.74 224.664 458.188 209.348 474.722 217.75C491.257 226.151 503.219 215.062 503.219 215.062Z" fill="url(#paint22_linear)"/>
<path d="M476.814 109.942C481.435 109.942 485.181 106.196 485.181 101.576C485.181 96.9549 481.435 93.209 476.814 93.209C472.194 93.209 468.448 96.9549 468.448 101.576C468.448 106.196 472.194 109.942 476.814 109.942Z" fill="white"/>
</g>
<defs>
<linearGradient id="paint0_linear" x1="301.2" y1="459.424" x2="310.872" y2="662.463" gradientUnits="userSpaceOnUse">
<stop stop-opacity="0"/>
<stop offset="0.97"/>
</linearGradient>
<linearGradient id="paint1_linear" x1="297.095" y1="-17.1914" x2="305.046" y2="481.534" gradientUnits="userSpaceOnUse">
<stop stop-color="white"/>
<stop offset="1" stop-color="white" stop-opacity="0"/>
</linearGradient>
<linearGradient id="paint2_linear" x1="254.587" y1="198.743" x2="228.77" y2="206.03" gradientUnits="userSpaceOnUse">
<stop stop-color="#ECC4D7"/>
<stop offset="0.42" stop-color="#EFD4D1"/>
<stop offset="1" stop-color="#F2EAC9"/>
</linearGradient>
<linearGradient id="paint3_linear" x1="24357.4" y1="7540.79" x2="23413.3" y2="31605.9" gradientUnits="userSpaceOnUse">
<stop stop-color="white"/>
<stop offset="1" stop-color="white" stop-opacity="0"/>
</linearGradient>
<linearGradient id="paint4_linear" x1="1414.81" y1="1165.92" x2="1442.1" y2="1165.92" gradientUnits="userSpaceOnUse">
<stop stop-color="#ECC4D7"/>
<stop offset="0.42" stop-color="#EFD4D1"/>
<stop offset="1" stop-color="#F2EAC9"/>
</linearGradient>
<linearGradient id="paint5_linear" x1="1511.73" y1="1296.33" x2="1560.74" y2="1296.33" gradientUnits="userSpaceOnUse">
<stop stop-color="#ECC4D7"/>
<stop offset="0.42" stop-color="#EFD4D1"/>
<stop offset="1" stop-color="#F2EAC9"/>
</linearGradient>
<linearGradient id="paint6_linear" x1="1118.96" y1="845.578" x2="1114.48" y2="864.569" gradientUnits="userSpaceOnUse">
<stop stop-color="#ECC4D7"/>
<stop offset="0.42" stop-color="#EFD4D1"/>
<stop offset="1" stop-color="#F2EAC9"/>
</linearGradient>
<linearGradient id="paint7_linear" x1="-3853.57" y1="837.921" x2="-3849.13" y2="856.907" gradientUnits="userSpaceOnUse">
<stop stop-color="#ECC4D7"/>
<stop offset="0.42" stop-color="#EFD4D1"/>
<stop offset="1" stop-color="#F2EAC9"/>
</linearGradient>
<linearGradient id="paint8_linear" x1="41452.4" y1="42063" x2="57990.8" y2="42063" gradientUnits="userSpaceOnUse">
<stop stop-color="#ECC4D7"/>
<stop offset="0.42" stop-color="#EFD4D1"/>
<stop offset="1" stop-color="#F2EAC9"/>
</linearGradient>
<linearGradient id="paint9_linear" x1="105857" y1="27629.5" x2="105774" y2="56641.4" gradientUnits="userSpaceOnUse">
<stop stop-opacity="0"/>
<stop offset="0.97"/>
</linearGradient>
<linearGradient id="paint10_linear" x1="30031.7" y1="30589.3" x2="25822.8" y2="45745.6" gradientUnits="userSpaceOnUse">
<stop stop-opacity="0"/>
<stop offset="0.97"/>
</linearGradient>
<linearGradient id="paint11_linear" x1="52404.1" y1="27026.2" x2="63443.2" y2="27026.2" gradientUnits="userSpaceOnUse">
<stop stop-color="#ECC4D7"/>
<stop offset="0.42" stop-color="#EFD4D1"/>
<stop offset="1" stop-color="#F2EAC9"/>
</linearGradient>
<linearGradient id="paint12_linear" x1="10194.3" y1="5303.43" x2="10276.3" y2="5837.38" gradientUnits="userSpaceOnUse">
<stop stop-color="#ECC4D7"/>
<stop offset="0.42" stop-color="#EFD4D1"/>
<stop offset="1" stop-color="#F2EAC9"/>
</linearGradient>
<linearGradient id="paint13_linear" x1="8200.31" y1="5752.51" x2="9241.29" y2="7189.18" gradientUnits="userSpaceOnUse">
<stop stop-color="#ECC4D7"/>
<stop offset="0.42" stop-color="#EFD4D1"/>
<stop offset="1" stop-color="#F2EAC9"/>
</linearGradient>
<linearGradient id="paint14_linear" x1="373.579" y1="246.238" x2="296.361" y2="503.047" gradientUnits="userSpaceOnUse">
<stop stop-color="white"/>
<stop offset="0.89" stop-color="white" stop-opacity="0"/>
</linearGradient>
<linearGradient id="paint15_linear" x1="150211" y1="3556.89" x2="150211" y2="5435.58" gradientUnits="userSpaceOnUse">
<stop stop-opacity="0"/>
<stop offset="0.97"/>
</linearGradient>
<linearGradient id="paint16_linear" x1="302.471" y1="255.322" x2="297.639" y2="476.892" gradientUnits="userSpaceOnUse">
<stop stop-color="white"/>
<stop offset="0.6" stop-color="white" stop-opacity="0.48"/>
<stop offset="0.87" stop-color="white" stop-opacity="0.13"/>
<stop offset="1" stop-color="white" stop-opacity="0"/>
</linearGradient>
<linearGradient id="paint17_linear" x1="162129" y1="5314.8" x2="162129" y2="8222.99" gradientUnits="userSpaceOnUse">
<stop stop-opacity="0"/>
<stop offset="0.97"/>
</linearGradient>
<linearGradient id="paint18_linear" x1="169501" y1="3802.74" x2="169500" y2="6635.86" gradientUnits="userSpaceOnUse">
<stop stop-color="white"/>
<stop offset="1" stop-color="white" stop-opacity="0"/>
</linearGradient>
<linearGradient id="paint19_linear" x1="68849.5" y1="17062.6" x2="68778" y2="29588.6" gradientUnits="userSpaceOnUse">
<stop stop-opacity="0"/>
<stop offset="0.97"/>
</linearGradient>
<linearGradient id="paint20_linear" x1="-25017.8" y1="5522.14" x2="-24434.4" y2="5661.46" gradientUnits="userSpaceOnUse">
<stop stop-color="#ECC4D7"/>
<stop offset="0.42" stop-color="#EFD4D1"/>
<stop offset="1" stop-color="#F2EAC9"/>
</linearGradient>
<linearGradient id="paint21_linear" x1="21207" y1="12588.6" x2="20525.6" y2="18567.8" gradientUnits="userSpaceOnUse">
<stop stop-color="#ECC4D7"/>
<stop offset="0.42" stop-color="#EFD4D1"/>
<stop offset="1" stop-color="#F2EAC9"/>
</linearGradient>
<linearGradient id="paint22_linear" x1="31787" y1="13466.7" x2="35403.3" y2="18543.5" gradientUnits="userSpaceOnUse">
<stop stop-color="#ECC4D7"/>
<stop offset="0.42" stop-color="#EFD4D1"/>
<stop offset="1" stop-color="#F2EAC9"/>
</linearGradient>
<clipPath id="clip0">
<rect width="604" height="516.643" fill="white"/>
</clipPath>
</defs>
</svg>
